<?xml version="1.0" standalone="no"?>
<!DOCTYPE svg PUBLIC "-//W3C//DTD SVG 20010904//EN"
 "http://www.w3.org/TR/2001/REC-SVG-20010904/DTD/svg10.dtd">
<svg version="1.0" xmlns="http://www.w3.org/2000/svg"
 width="300.000000pt" height="300.000000pt" viewBox="0 0 300.000000 300.000000"
 preserveAspectRatio="xMidYMid meet">
<metadata>
Created by potrace 1.11, written by Peter Selinger 2001-2013
</metadata>
<g transform="translate(0.000000,300.000000) scale(0.100000,-0.100000)"
fill="#000000" stroke="none">
<path d="M126 2985 c4 -8 10 -12 15 -9 11 6 2 24 -11 24 -5 0 -7 -7 -4 -15z"/>
<path d="M1035 2991 c-5 -9 41 -8 50 0 3 4 -6 7 -20 7 -14 0 -27 -4 -30 -7z"/>
<path d="M1333 2985 c0 -8 4 -12 9 -9 5 3 6 10 3 15 -9 13 -12 11 -12 -6z"/>
<path d="M1578 2993 c7 -3 16 -2 19 1 4 3 -2 6 -13 5 -11 0 -14 -3 -6 -6z"/>
<path d="M2413 2989 c3 -9 1 -21 -5 -27 -6 -6 -5 -12 4 -17 7 -5 10 -5 6 0 -4
4 -4 13 2 19 5 7 5 17 -2 26 -8 13 -9 12 -5 -1z"/>
<path d="M356 2978 c3 -5 10 -6 15 -3 13 9 11 12 -6 12 -8 0 -12 -4 -9 -9z"/>
<path d="M427 2975 c3 -8 9 -12 14 -9 12 7 11 11 -5 17 -10 4 -13 1 -9 -8z"/>
<path d="M475 2980 c-3 -5 -1 -10 4 -10 6 0 11 5 11 10 0 6 -2 10 -4 10 -3 0
-8 -4 -11 -10z"/>
<path d="M1820 2958 c0 -11 12 -10 30 2 12 7 10 9 -8 7 -12 0 -22 -5 -22 -9z"/>
<path d="M2030 2961 c0 -6 4 -13 10 -16 6 -3 7 1 4 9 -7 18 -14 21 -14 7z"/>
<path d="M2175 2963 c11 -3 23 -10 26 -15 4 -6 13 -7 20 -3 15 10 -13 24 -46
23 l-20 0 20 -5z"/>
<path d="M725 2950 c-3 -6 1 -7 9 -4 18 7 21 14 7 14 -6 0 -13 -4 -16 -10z"/>
<path d="M842 2951 c-11 -7 -11 -9 0 -14 9 -3 15 1 15 9 0 8 -1 14 -1 14 -1 0
-7 -4 -14 -9z"/>
<path d="M2276 2952 c-3 -5 1 -9 9 -9 8 0 15 4 15 9 0 4 -4 8 -9 8 -6 0 -12
-4 -15 -8z"/>
<path d="M321 2936 c-9 -10 -8 -15 2 -19 8 -3 13 3 13 14 0 23 0 23 -15 5z"/>
<path d="M186 2933 c6 -4 14 -15 17 -23 5 -11 6 -9 4 4 -1 11 -9 21 -17 23
-10 3 -11 2 -4 -4z"/>
<path d="M826 2913 c-6 -14 -5 -15 5 -6 7 7 10 15 7 18 -3 3 -9 -2 -12 -12z"/>
<path d="M1635 2920 c3 -5 8 -10 11 -10 2 0 4 5 4 10 0 6 -5 10 -11 10 -5 0
-7 -4 -4 -10z"/>
<path d="M2261 2914 c0 -11 3 -14 6 -6 3 7 2 16 -1 19 -3 4 -6 -2 -5 -13z"/>
<path d="M140 2900 c-8 -5 -10 -10 -5 -10 6 0 17 5 25 10 8 5 11 10 5 10 -5 0
-17 -5 -25 -10z"/>
<path d="M230 2895 c-11 -13 -10 -14 4 -9 9 3 16 10 16 15 0 13 -6 11 -20 -6z"/>
<path d="M490 2905 c0 -2 6 -8 13 -14 10 -8 14 -7 14 2 0 8 -6 14 -14 14 -7 0
-13 -1 -13 -2z"/>
<path d="M71 2866 c-9 -11 -9 -16 1 -22 7 -4 10 -4 6 1 -4 4 -3 14 3 22 6 7 9
13 6 13 -2 0 -10 -6 -16 -14z"/>
<path d="M336 2865 c-3 -9 -2 -14 3 -10 5 3 11 -1 14 -7 2 -7 7 -11 10 -8 3 3
0 13 -8 23 -11 16 -13 16 -19 2z"/>
<path d="M795 2869 c-10 -15 3 -25 16 -12 7 7 7 13 1 17 -6 3 -14 1 -17 -5z"/>
<path d="M542 2852 c7 -9 13 -18 14 -20 1 -2 4 4 7 12 3 8 -2 16 -14 19 -17 5
-18 3 -7 -11z"/>
<path d="M710 2866 c0 -2 7 -7 16 -10 8 -3 12 -2 9 4 -6 10 -25 14 -25 6z"/>
<path d="M1155 2860 c-3 -6 1 -7 9 -4 18 7 21 14 7 14 -6 0 -13 -4 -16 -10z"/>
<path d="M89 2833 c-13 -16 -12 -17 4 -4 9 7 17 15 17 17 0 8 -8 3 -21 -13z"/>
<path d="M1100 2838 c0 -4 7 -8 15 -8 8 0 15 4 15 8 0 5 -7 9 -15 9 -8 0 -15
-4 -15 -9z"/>
<path d="M1572 2834 c-7 -8 -8 -14 -3 -14 10 0 25 19 20 25 -2 1 -10 -3 -17
-11z"/>
<path d="M130 2825 c0 -8 4 -15 10 -15 5 0 7 7 4 15 -4 8 -8 15 -10 15 -2 0
-4 -7 -4 -15z"/>
<path d="M640 2829 c0 -5 5 -7 10 -4 6 3 10 8 10 11 0 2 -4 4 -10 4 -5 0 -10
-5 -10 -11z"/>
<path d="M1352 2820 c7 -10 14 -18 15 -16 6 6 -9 36 -18 36 -5 0 -4 -9 3 -20z"/>
<path d="M407 2823 c-11 -11 -8 -20 7 -20 8 0 12 6 9 14 -6 15 -7 15 -16 6z"/>
<path d="M1390 2819 c0 -5 5 -7 10 -4 6 3 10 8 10 11 0 2 -4 4 -10 4 -5 0 -10
-5 -10 -11z"/>
<path d="M731 2794 c0 -11 3 -14 6 -6 3 7 2 16 -1 19 -3 4 -6 -2 -5 -13z"/>
<path d="M1455 2803 c11 -3 27 -10 35 -17 13 -10 13 -9 1 7 -7 9 -23 16 -35
16 -20 -1 -20 -2 -1 -6z"/>
<path d="M1655 2800 c-3 -5 -1 -10 4 -10 6 0 11 5 11 10 0 6 -2 10 -4 10 -3 0
-8 -4 -11 -10z"/>
<path d="M945 2779 c-4 -6 -5 -12 -2 -15 2 -3 7 2 10 11 7 17 1 20 -8 4z"/>
<path d="M30 2770 c0 -5 5 -10 11 -10 5 0 7 5 4 10 -3 6 -8 10 -11 10 -2 0 -4
-4 -4 -10z"/>
<path d="M283 2736 c-9 -11 -9 -15 0 -19 7 -3 14 3 14 14 2 22 2 22 -14 5z"/>
<path d="M571 2704 c-1 -6 5 -17 13 -24 8 -6 12 -19 9 -28 -4 -14 -3 -15 5 -2
7 9 7 19 2 26 -6 6 -6 15 -2 19 4 5 2 5 -5 2 -6 -4 -14 -1 -16 5 -4 8 -6 9 -6
2z"/>
<path d="M532 2670 c0 -14 2 -19 5 -12 2 6 2 18 0 25 -3 6 -5 1 -5 -13z"/>
<path d="M226 2672 c-3 -5 1 -9 9 -9 8 0 12 4 9 9 -3 4 -7 8 -9 8 -2 0 -6 -4
-9 -8z"/>
<path d="M280 2630 c0 -5 5 -10 10 -10 6 0 10 5 10 10 0 6 -4 10 -10 10 -5 0
-10 -4 -10 -10z"/>
<path d="M468 2628 c5 -5 16 -8 23 -6 8 3 3 7 -10 11 -17 4 -21 3 -13 -5z"/>
<path d="M404 2609 c-3 -6 -2 -15 3 -20 5 -5 9 -1 9 11 0 23 -2 24 -12 9z"/>
<path d="M649 2573 c-1 -10 -2 -29 -2 -43 -2 -17 -9 -26 -27 -30 l-25 -6 24
-6 c12 -4 20 -11 17 -17 -4 -5 -2 -12 3 -15 5 -4 9 -20 9 -36 -1 -23 -6 -30
-22 -30 -15 0 -17 -3 -8 -9 8 -4 13 -11 13 -15 -1 -3 -1 -14 -1 -23 0 -14 2
-15 9 -4 6 9 9 -25 10 -88 1 -56 -2 -100 -6 -98 -5 3 -8 -20 -8 -51 0 -32 -3
-84 -8 -116 -11 -97 -17 -162 -11 -144 3 9 11 61 18 115 13 93 14 84 9 -177
-2 -151 -6 -283 -8 -292 -2 -10 1 -18 5 -18 5 0 11 33 13 73 l3 72 2 -77 c1
-47 -2 -78 -8 -78 -5 0 -10 -8 -10 -19 0 -18 -25 -31 -60 -31 -18 0 -19 62 -2
82 7 9 7 19 2 28 -9 13 -10 13 -10 0 0 -8 -4 -21 -9 -29 -7 -11 -13 -10 -34 4
-25 16 -53 13 -42 -5 3 -5 1 -11 -4 -15 -5 -3 -8 -14 -6 -25 3 -18 -2 -20 -53
-21 -31 -1 -60 -1 -64 0 -5 0 -8 -4 -8 -9 0 -6 -9 -10 -20 -10 -11 0 -20 -4
-20 -10 0 -14 -67 -13 -72 2 -3 7 -37 13 -89 15 -90 5 -129 17 -129 42 0 9 -5
23 -10 31 -8 11 -10 4 -8 -27 1 -31 6 -43 17 -43 14 0 14 -1 1 -10 -10 -7 -11
-13 -5 -17 14 -10 11 -56 -4 -61 -15 -5 -14 -65 1 -81 9 -9 9 -12 1 -7 -8 5
-11 -31 -11 -139 1 -97 5 -145 12 -145 7 0 6 -4 -2 -8 -6 -5 -11 -21 -10 -38
2 -41 8 -48 23 -27 13 17 14 17 12 -4 0 -12 -4 -20 -8 -17 -16 10 -26 -27 -28
-110 -2 -63 1 -91 10 -97 10 -5 10 -11 2 -21 -7 -7 -11 -34 -10 -59 l2 -46 26
20 c15 11 32 16 38 12 7 -3 10 -1 9 6 -2 7 2 13 7 14 6 0 20 6 31 13 17 9 24
9 33 -2 6 -7 9 -15 6 -18 -3 -2 1 -5 9 -5 8 0 12 6 9 14 -8 20 44 16 57 -4 11
-17 11 -17 6 0 -3 11 0 17 10 17 16 0 12 -12 -14 -42 -8 -10 -19 -15 -23 -12
-5 3 -6 -2 -3 -10 6 -15 -6 -15 -39 -1 -10 4 -27 1 -42 -9 -31 -20 -36 -20
-29 2 5 15 4 15 -6 -1 -10 -15 -14 -16 -28 -5 -13 11 -14 11 -8 0 6 -10 1 -12
-20 -10 -21 2 -29 -2 -32 -15 -3 -16 1 -18 27 -12 19 4 31 3 31 -4 0 -6 7 -8
15 -5 8 4 12 11 8 18 -4 6 9 -1 29 -16 19 -15 39 -24 42 -20 4 3 4 -2 0 -12
-5 -14 -4 -17 4 -12 7 4 12 2 12 -3 0 -6 -7 -11 -15 -11 -8 0 -15 6 -15 14 0
7 -7 19 -16 27 -13 10 -17 10 -24 -1 -6 -10 -14 -11 -32 -4 -52 22 -63 14 -66
-51 -3 -48 0 -62 15 -74 16 -13 17 -13 1 -8 -15 5 -18 0 -18 -29 0 -21 4 -33
10 -29 6 4 7 11 4 17 -5 7 -2 8 5 4 9 -6 8 -12 -4 -26 -13 -14 -15 -40 -14
-139 l1 -121 48 0 c38 0 50 4 53 17 4 17 5 17 6 1 1 -15 10 -18 50 -18 37 0
50 4 56 18 6 16 7 16 19 0 10 -13 29 -17 94 -16 58 0 80 4 75 12 -4 6 0 5 9
-2 16 -13 65 -11 89 3 6 4 15 1 21 -6 7 -11 8 -9 6 6 -2 12 -10 19 -21 17 -10
-2 -15 2 -12 11 9 21 75 9 75 -13 0 -10 -8 -21 -17 -23 -10 -2 203 -5 472 -5
270 -1 484 2 477 7 -10 6 -9 10 7 14 12 3 24 0 28 -5 4 -7 1 -8 -8 -3 -11 6
-11 5 -3 -4 15 -16 70 -10 66 7 -1 6 5 12 14 12 8 0 12 -5 9 -10 -8 -13 20
-24 40 -16 8 3 18 5 21 5 4 0 11 5 15 13 6 10 9 8 9 -7 0 -17 2 -17 10 -5 6
10 10 11 10 3 0 -7 7 -13 15 -13 8 0 14 3 13 8 -2 10 20 59 23 50 1 -5 2 -14
3 -20 1 -15 26 -21 43 -10 20 13 20 46 -2 50 -17 4 -18 2 -6 -11 15 -19 7 -37
-17 -37 -15 0 -15 2 -2 10 9 6 11 10 3 10 -7 0 -10 7 -6 16 10 26 -20 12 -32
-14 -12 -28 -29 -29 -20 -2 6 19 -8 29 -18 13 -2 -5 -3 -3 -1 4 4 18 -8 24
-24 10 -13 -10 -14 -9 -4 10 9 16 9 22 -1 26 -6 2 -9 8 -5 12 4 4 14 3 21 -4
11 -9 14 -5 15 21 0 21 -2 28 -8 19 -6 -10 -9 -9 -15 8 -3 11 -11 21 -17 21
-5 0 -8 -7 -4 -15 7 -20 -3 -46 -16 -39 -6 4 -2 -5 7 -20 16 -23 16 -26 1 -20
-9 3 -13 10 -10 15 5 8 -9 13 -28 10 -5 0 -8 14 -8 31 0 18 -4 29 -8 23 -4 -5
-18 -11 -32 -12 -24 -3 -24 -2 -5 9 11 6 25 19 32 27 11 14 12 14 13 0 0 -8 7
-24 16 -35 15 -18 15 -18 10 8 -4 15 -2 30 4 33 5 3 10 2 10 -4 0 -11 25 -4
54 15 16 11 12 12 -31 10 -41 -1 -49 1 -49 16 0 10 3 18 7 18 4 0 14 3 23 6 9
3 16 1 16 -5 0 -6 -7 -11 -16 -11 -8 0 -12 -5 -9 -10 10 -17 37 11 32 32 -3
11 -1 15 5 12 6 -4 8 -1 6 7 -3 8 -16 13 -29 12 -20 -2 -21 -1 -7 7 9 6 15 17
12 25 -4 8 -1 15 5 15 6 0 11 -10 11 -22 0 -17 3 -19 9 -9 13 20 21 -9 9 -32
-5 -10 -7 -26 -5 -35 3 -12 5 -11 6 6 0 12 6 23 11 23 6 1 14 2 19 3 5 0 13 4
17 9 13 13 38 8 27 -5 -16 -21 -22 -57 -9 -62 7 -3 7 -5 -2 -5 -7 -1 -10 -6
-7 -11 3 -6 1 -10 -4 -10 -6 0 -11 8 -11 18 -1 16 -1 16 -11 -1 -6 -9 -14 -15
-19 -12 -4 3 -10 -1 -13 -8 -6 -15 43 -19 61 -5 16 14 22 7 27 -33 6 -48 21
-57 45 -29 11 13 18 26 15 29 -4 3 -9 1 -13 -4 -11 -16 -32 -16 -32 -1 0 8 -2
21 -5 29 -4 8 0 14 10 14 10 0 14 -7 10 -21 -3 -12 -2 -15 1 -8 3 6 12 12 20
12 8 0 14 7 14 16 0 10 -5 14 -15 10 -9 -3 -18 1 -22 9 -4 12 -9 13 -19 4 -8
-6 -14 -7 -14 -3 0 5 9 15 19 21 13 8 18 19 14 34 -5 18 -3 20 15 15 11 -4 23
-2 27 3 3 7 0 8 -9 5 -9 -3 -16 -1 -16 6 0 6 -4 8 -10 5 -6 -3 -10 4 -10 16 0
20 1 21 13 7 6 -9 28 -18 48 -21 20 -2 43 -8 49 -12 9 -5 11 -4 6 3 -4 7 -3
12 1 12 5 0 18 6 28 14 18 13 17 13 -6 11 -39 -4 -40 -5 -34 -15 9 -14 -47 -1
-56 13 -4 5 -12 6 -18 3 -7 -5 -11 1 -11 13 0 12 4 21 10 21 5 0 7 7 3 16 -4
11 -8 12 -13 4 -5 -8 -10 -8 -14 -2 -3 5 1 15 9 22 16 14 10 34 -7 24 -7 -4
-8 -2 -4 5 4 6 12 8 18 5 7 -5 8 -2 4 5 -5 7 -15 10 -24 6 -12 -5 -12 -1 3 17
11 13 22 25 24 28 2 3 1 -6 -2 -18 -5 -20 -2 -23 14 -19 19 5 26 -7 10 -18
-14 -8 -9 -45 5 -42 7 1 12 -2 11 -8 -1 -5 -4 -9 -7 -8 -3 1 -6 -6 -6 -16 0
-10 6 -18 14 -18 7 0 11 6 8 12 -2 7 4 18 14 25 10 7 16 20 13 29 -3 11 0 10
12 -4 13 -16 17 -17 24 -6 10 16 3 43 -9 36 -5 -3 -11 -1 -15 5 -7 12 -26 14
-24 3 1 -5 1 -17 0 -27 -1 -25 -13 -13 -16 17 -3 22 0 24 44 23 33 -1 48 -6
53 -18 8 -20 48 -44 48 -28 0 5 -8 10 -17 11 -12 0 -13 2 -5 6 10 4 9 9 -5 20
-10 8 -13 12 -6 9 6 -4 14 -2 18 4 4 6 10 8 15 5 5 -3 11 -1 14 4 3 5 -1 11
-8 14 -8 3 -16 1 -19 -6 -2 -8 -5 -8 -10 0 -4 6 0 18 8 26 8 9 15 19 15 24 -1
4 -9 -3 -20 -16 -11 -12 -17 -27 -14 -32 3 -5 1 -9 -5 -9 -5 0 -13 9 -16 20
-3 11 -11 20 -16 20 -10 0 -8 -22 4 -31 4 -3 -15 -5 -43 -5 -27 1 -50 5 -50 9
0 5 -5 5 -12 1 -6 -4 -8 -3 -4 4 3 6 2 13 -4 17 -6 4 -7 11 -4 17 4 7 2 8 -4
4 -7 -4 -12 -2 -12 3 0 6 7 11 15 11 8 0 15 -7 15 -16 0 -8 4 -12 10 -9 5 3 7
0 4 -8 -3 -10 3 -16 20 -19 32 -6 38 -1 26 23 -7 12 -7 20 0 24 6 3 10 -4 10
-17 0 -18 2 -20 10 -8 5 9 5 19 -2 27 -8 10 -6 13 5 13 9 0 18 -4 22 -9 8 -13
42 -5 61 14 24 23 11 28 -13 5 -17 -15 -22 -16 -26 -5 -4 8 -14 11 -25 8 -11
-2 -23 1 -28 8 -5 9 -2 11 9 6 10 -4 17 -2 17 5 0 7 5 6 15 -2 13 -11 19 -9
38 7 12 11 28 19 35 17 7 -1 8 0 2 3 -5 2 -10 10 -10 18 0 18 -27 38 -34 26
-4 -6 -13 -8 -21 -4 -8 3 -15 0 -15 -6 0 -19 -30 -12 -30 7 0 9 -7 25 -14 35
-14 18 -14 18 -19 0 -4 -14 -5 -13 -6 5 -1 20 2 22 22 16 12 -3 24 -11 25 -15
5 -11 22 -12 22 -1 0 5 -9 18 -20 30 -23 25 -24 29 -7 29 6 0 22 3 35 7 25 8
29 -1 7 -18 -11 -8 -12 -15 -4 -26 9 -13 10 -12 5 2 -3 12 -1 15 10 11 22 -8
18 40 -6 54 -16 11 -21 10 -29 -4 -5 -10 -20 -18 -33 -18 -12 0 -22 -5 -21
-12 1 -6 -8 -10 -22 -8 -20 2 -23 0 -14 -11 9 -11 8 -14 -2 -14 -10 -1 -8 -4
4 -11 19 -11 23 -39 6 -39 -6 0 -8 -7 -5 -16 3 -8 2 -12 -4 -9 -5 3 -14 -4
-20 -15 -8 -15 -17 -19 -32 -14 -13 4 -18 2 -14 -4 3 -6 2 -13 -4 -17 -15 -9
-12 -21 8 -41 16 -17 16 -18 -1 -11 -12 4 -23 -1 -35 -14 -9 -12 -22 -27 -29
-34 -9 -9 -8 -17 3 -34 18 -25 7 -29 -12 -3 -15 19 -19 56 -6 48 5 -3 7 12 5
32 -1 23 1 32 6 23 7 -10 10 -10 16 -1 6 9 9 9 16 -1 4 -7 11 -10 15 -6 4 4 0
15 -9 25 -10 10 -14 22 -10 25 3 4 1 7 -5 7 -6 0 -13 -8 -15 -18 -3 -9 -4 2
-2 25 2 24 0 45 -5 48 -11 7 -29 -26 -23 -42 6 -17 -9 -16 -33 2 -16 12 -16
14 -2 9 13 -4 21 1 28 20 7 19 15 25 32 22 13 -2 31 3 40 12 12 9 18 11 18 4
0 -7 -4 -12 -9 -12 -5 0 -7 -9 -4 -20 3 -11 0 -20 -6 -20 -5 0 -8 8 -5 17 5
15 3 15 -10 -1 -9 -11 -16 -23 -16 -28 0 -12 38 -10 45 3 4 6 13 8 20 5 17 -6
41 14 48 41 4 16 1 20 -11 16 -9 -4 -13 -2 -9 4 4 6 -4 11 -19 10 -31 0 -43
11 -24 23 8 5 19 5 26 0 14 -12 24 -2 17 16 -3 9 2 14 13 15 11 0 14 3 7 6
-20 7 -15 19 8 20 14 1 19 -3 15 -13 -3 -8 -1 -14 4 -14 6 0 10 5 10 11 0 7
10 9 24 7 16 -3 27 2 36 15 10 17 10 19 -3 14 -9 -3 -21 1 -27 9 -8 9 -9 14
-2 14 6 0 18 3 28 7 13 5 15 3 9 -7 -5 -9 -4 -11 3 -6 9 5 9 13 0 29 -6 12
-11 23 -10 25 7 10 0 14 -10 4 -16 -16 -25 -15 -25 3 0 14 10 19 30 16 5 -1 6
3 2 9 -3 5 -2 10 3 10 6 0 13 -7 16 -16 3 -8 10 -13 15 -10 5 4 12 -2 14 -11
4 -17 5 -17 6 0 1 20 14 22 28 5 14 -18 12 -48 -3 -48 -15 0 -26 -53 -11 -62
12 -7 37 1 37 13 0 4 -6 6 -14 3 -10 -4 -14 1 -13 15 1 11 8 23 15 26 10 3 12
0 8 -10 -5 -15 5 -19 33 -15 12 1 13 -1 2 -14 -11 -13 -9 -13 18 -3 16 6 27
15 24 21 -3 5 -1 6 5 2 7 -4 12 -2 12 4 0 6 5 8 12 4 7 -5 5 -11 -7 -21 -17
-12 -14 -18 8 -14 4 0 7 -7 7 -16 0 -10 7 -27 15 -37 13 -17 12 -21 -3 -32
-15 -12 -15 -12 6 -7 28 7 29 -12 2 -27 -22 -12 -27 -32 -7 -29 34 4 35 -4 5
-31 -24 -22 -28 -30 -16 -30 11 0 15 -5 12 -15 -4 -8 -10 -15 -16 -15 -5 0 -6
5 -2 12 4 7 3 8 -5 4 -6 -4 -9 -11 -6 -16 3 -4 -2 -13 -10 -20 -13 -11 -14 -6
-10 33 5 39 3 47 -15 57 -15 8 -20 8 -20 -2 0 -10 -2 -10 -9 1 -6 9 -11 10
-15 2 -8 -12 13 -24 34 -19 7 2 15 -4 17 -12 3 -9 1 -11 -4 -5 -7 9 -28 10
-67 6 -5 -1 -3 -8 4 -16 10 -12 10 -15 0 -15 -8 0 -11 -3 -8 -6 3 -3 15 0 27
8 18 11 23 10 38 -5 16 -16 16 -17 0 -18 -9 -1 -21 -3 -27 -4 -5 -1 -20 -3
-32 -5 -13 -1 -17 -4 -10 -7 6 -2 12 -12 12 -21 0 -13 3 -12 15 4 14 18 15 18
11 -8 -3 -17 1 -28 11 -32 10 -4 14 -15 11 -31 -3 -14 -1 -23 6 -22 5 1 10 -3
11 -10 0 -23 11 -21 11 2 0 14 -3 25 -7 25 -4 0 -7 9 -6 19 1 12 6 17 15 14
11 -5 11 -7 0 -14 -10 -7 -9 -9 4 -9 10 0 16 -6 14 -12 -1 -7 -1 -10 1 -5 3 4
9 7 14 7 6 0 7 -5 3 -12 -5 -8 -1 -9 12 -5 17 6 17 5 -2 -11 -19 -16 -44 -53
-44 -65 0 -2 12 -3 26 -1 19 2 27 -4 35 -24 8 -21 12 -23 19 -12 8 13 10 12
10 -2 0 -10 -5 -18 -11 -18 -8 0 -7 -6 2 -17 8 -9 9 -14 2 -10 -6 4 -14 1 -16
-5 -3 -7 -6 -3 -6 10 -1 27 -17 29 -31 3 -14 -27 -13 -31 10 -31 18 0 25 -16
21 -42 0 -5 3 -8 9 -8 5 0 10 5 10 10 0 6 4 10 10 10 5 0 7 -6 4 -13 -3 -8 3
-13 15 -13 20 0 24 16 7 28 -17 12 -14 36 5 41 12 3 17 11 13 20 -3 9 -12 13
-20 10 -8 -3 -14 0 -14 7 0 6 4 9 9 5 5 -3 12 -1 16 5 4 6 11 8 16 5 5 -4 9
-1 9 5 0 6 5 8 10 5 15 -9 12 -25 -6 -25 -8 0 -12 -4 -9 -10 3 -5 -2 -21 -11
-36 -17 -25 -17 -26 2 -22 11 2 21 15 25 33 l7 30 1 -27 c1 -30 25 -38 35 -12
3 8 10 13 15 10 5 -3 11 1 14 9 4 9 1 12 -7 9 -7 -3 -13 1 -13 9 0 18 25 18
31 0 3 -8 11 -11 17 -7 7 4 10 1 7 -7 -3 -8 -9 -13 -14 -12 -15 2 -33 -23 -25
-35 4 -6 17 -13 29 -15 12 -2 24 -6 28 -9 3 -4 12 -4 20 -1 11 4 14 -1 10 -21
-8 -44 -33 -66 -33 -29 0 10 -1 27 -2 38 l-2 20 -16 -20 c-13 -16 -15 -17 -10
-2 8 22 -16 23 -34 0 -10 -12 -11 -15 -1 -9 7 4 19 2 27 -4 8 -6 19 -9 26 -5
8 6 8 2 0 -13 -16 -30 -28 -35 -40 -15 -6 10 -11 14 -11 9 0 -4 -8 0 -17 11
-10 10 -15 14 -10 9 11 -15 9 -46 -4 -46 -5 0 -8 4 -5 9 3 5 -1 11 -9 15 -21
8 -19 -6 5 -32 20 -21 20 -21 -3 -18 -43 5 -58 17 -51 40 6 18 5 19 -10 7 -10
-9 -16 -10 -16 -2 0 6 -7 11 -15 11 -17 0 -20 -16 -5 -25 6 -4 7 -12 3 -18 -5
-9 -3 -9 8 0 11 9 18 8 33 -3 19 -13 19 -14 -7 -14 -26 0 -34 -9 -20 -23 3 -4
12 -2 20 4 7 6 13 8 13 4 0 -4 -8 -14 -17 -21 -11 -8 -13 -13 -5 -14 6 0 12
-5 12 -11 0 -8 -4 -8 -13 0 -10 8 -17 7 -25 -1 -9 -9 -12 -8 -12 6 0 9 4 15 9
11 5 -3 12 -1 15 4 3 5 -3 11 -14 14 -10 3 -21 0 -24 -7 -3 -8 -5 -7 -5 1 -1
7 -7 10 -14 7 -15 -5 -30 9 -40 39 -4 11 -3 16 3 12 6 -3 10 -1 10 4 0 6 -5
11 -11 11 -6 0 -8 7 -5 16 3 8 2 12 -4 9 -6 -3 -10 -1 -10 5 0 7 -7 9 -16 6
-8 -3 -13 -2 -10 2 3 5 -1 30 -9 56 -8 27 -12 53 -9 58 3 5 8 23 11 41 4 29 4
30 -14 17 -17 -14 -17 -14 0 7 18 20 18 22 -4 42 -13 12 -30 20 -38 20 -14 -1
-14 -2 0 -6 11 -2 16 -17 17 -43 2 -33 -1 -38 -16 -34 -16 5 -16 5 1 -6 16
-11 23 -50 11 -63 -4 -3 -8 -30 -10 -59 -2 -29 -8 -54 -13 -56 -6 -2 -7 -10
-4 -19 4 -9 2 -14 -3 -10 -6 3 -11 -4 -11 -15 -1 -11 -10 -26 -19 -33 -16 -12
-16 -13 5 -20 14 -4 20 -12 17 -21 -4 -11 8 -14 58 -14 48 0 65 4 70 15 6 16
46 21 46 5 0 -5 -6 -7 -14 -4 -8 3 -17 1 -20 -5 -10 -15 224 -12 243 3 11 8
13 8 7 -1 -4 -8 -1 -13 8 -13 17 0 20 10 9 26 -5 5 0 1 9 -9 15 -15 32 -18
130 -16 72 1 116 5 120 13 6 8 8 8 8 -1 0 -7 11 -13 25 -13 17 0 23 4 19 15
-4 8 -10 12 -15 9 -5 -3 -6 2 -3 10 5 13 10 11 26 -9 19 -24 23 -25 138 -25
l119 0 0 630 c0 416 -3 631 -10 635 -6 4 -6 11 -1 18 5 7 10 46 10 87 l1 75
-87 43 -87 43 -142 -5 -143 -5 -1 32 -1 32 -7 -30 -6 -30 -182 0 c-169 0 -184
1 -202 20 -11 11 -22 33 -25 49 -8 46 -23 52 -28 13 -2 -23 0 -33 7 -30 5 3
-2 -7 -18 -24 -15 -16 -33 -30 -40 -31 -6 -1 -56 -5 -111 -8 -84 -5 -103 -3
-132 12 -19 10 -34 22 -34 27 0 4 4 5 10 2 5 -3 7 0 4 8 -3 8 9 31 26 51 45
51 88 168 88 242 0 63 15 114 32 114 6 0 0 19 -14 43 -19 32 -25 58 -27 112
-1 41 -8 79 -17 93 -15 24 -11 27 33 22 11 -1 17 1 13 6 -4 4 -21 7 -38 6 -16
0 -30 3 -30 8 0 14 -73 80 -118 106 -35 21 -56 26 -118 26 -40 0 -74 5 -74 10
0 5 -7 2 -16 -6 -8 -9 -23 -16 -32 -17 -32 -1 -57 -8 -114 -32 -54 -21 -128
-76 -129 -94 0 -4 -3 -10 -6 -13 -4 -3 -3 0 0 6 9 15 -30 22 -63 13 -23 -7
-23 -7 7 -8 42 -1 52 -22 38 -76 -11 -44 -25 -70 -25 -46 0 7 -5 9 -11 6 -6
-5 -4 -12 8 -21 10 -7 13 -14 6 -14 -7 0 -10 -7 -7 -15 6 -14 -12 -21 -39 -16
-5 1 -7 -4 -5 -11 3 -7 14 -14 25 -16 26 -4 32 -17 26 -59 -5 -32 -6 -33 -47
-27 -36 6 -50 -4 -14 -10 45 -8 56 -18 67 -63 7 -26 21 -59 32 -75 15 -21 19
-40 17 -78 l-3 -51 -70 -30 c-38 -16 -78 -29 -88 -29 -26 0 -88 -28 -112 -50
-28 -26 -258 -121 -268 -111 -5 5 -9 42 -8 82 0 103 0 94 -4 199 -2 52 -7 205
-10 339 l-7 244 29 -7 28 -6 -30 25 c-33 28 -17 34 27 11 18 -9 30 -11 34 -5
3 6 3 13 0 16 -3 4 -6 0 -6 -8 -1 -10 -3 -9 -11 4 -5 9 -17 17 -24 17 -8 0
-15 5 -15 10 0 6 -5 10 -11 10 -5 0 -7 -4 -4 -10 3 -5 1 -10 -4 -10 -6 0 -11
14 -11 31 0 27 3 30 23 23 12 -3 24 -11 25 -15 2 -5 13 -9 23 -9 11 0 17 -4
14 -10 -3 -6 1 -7 9 -4 9 3 16 1 16 -5 0 -6 5 -11 10 -11 19 0 9 15 -25 38
-19 12 -42 22 -50 22 -8 0 -15 5 -15 11 0 5 -4 7 -10 4 -5 -3 -10 -2 -10 3 0
14 56 20 75 9 11 -6 21 -5 27 1 7 7 19 5 36 -4 14 -7 29 -11 34 -8 4 3 8 1 8
-5 0 -6 6 -8 14 -5 17 6 36 -24 28 -46 -4 -12 -2 -13 9 -2 15 14 43 16 34 2
-3 -5 -2 -10 4 -10 5 0 11 4 13 9 2 5 21 1 43 -10 22 -11 48 -18 58 -15 9 2
17 1 17 -3 0 -4 6 -8 13 -8 6 0 19 -4 28 -7 10 -4 16 -2 16 7 0 7 -11 14 -24
15 -13 1 -33 7 -44 12 -11 6 -25 8 -31 4 -7 -4 -8 -3 -4 4 5 8 -2 12 -18 12
-14 0 -27 -1 -28 -2 -2 -1 -21 10 -43 24 -22 14 -56 29 -75 33 -19 4 -45 15
-57 25 -12 10 -49 20 -83 24 -63 7 -65 9 -60 64 1 14 -4 22 -14 22 -9 0 -16
-8 -17 -17z m126 -101 c-3 -3 -11 0 -18 7 -9 10 -8 11 6 5 10 -3 15 -9 12 -12z
m806 -145 c-8 -8 -11 -8 -11 2 0 7 -5 9 -11 6 -6 -4 -5 2 3 14 11 18 14 18 21
5 6 -10 5 -20 -2 -27z m-19 -8 c7 -1 19 -1 26 0 16 2 16 -16 0 -21 -8 -3 -3
-10 12 -18 23 -12 24 -12 11 3 -9 11 -10 17 -2 17 6 0 10 3 10 8 -3 19 2 33
11 27 5 -3 7 -12 4 -20 -3 -8 4 -19 18 -26 20 -11 21 -10 11 3 -10 12 -10 15
0 15 6 0 25 4 41 8 28 8 29 7 22 -20 -6 -25 -5 -27 8 -16 9 7 13 18 10 23 -4
6 4 4 17 -3 23 -12 23 -12 4 -20 -17 -7 -17 -8 7 -8 18 -1 31 -10 45 -33 20
-35 20 -73 0 -62 -7 4 -8 3 -4 -1 14 -16 39 -15 33 1 -3 9 -1 12 4 9 17 -11
11 -35 -9 -35 -11 0 -23 -5 -26 -10 -4 -6 -11 -8 -16 -5 -5 3 -6 -1 -3 -9 5
-13 2 -13 -20 -3 -27 13 -34 27 -13 27 8 0 8 3 1 8 -6 4 -14 15 -17 25 -9 25
-32 16 -33 -12 -1 -13 3 -20 10 -18 13 5 42 -50 33 -60 -10 -10 -37 6 -33 19
1 7 1 10 -1 5 -3 -4 -8 -5 -12 -2 -5 2 -7 -6 -6 -18 3 -26 -30 -36 -39 -12 -3
9 0 12 10 8 8 -3 14 1 14 10 0 15 -23 17 -36 4 -4 -4 -13 -2 -21 4 -10 9 -17
8 -28 -1 -12 -10 -16 -8 -25 15 -6 15 -13 32 -17 38 -7 12 14 1 41 -22 11 -9
16 -10 12 -3 -7 12 4 16 32 13 6 -1 20 3 30 9 16 11 15 11 -2 6 -25 -8 -53 1
-60 20 -5 12 -2 12 15 3 17 -9 20 -8 17 3 -3 7 -13 15 -24 17 -10 2 -22 8 -25
13 -4 6 -10 1 -13 -10 -7 -22 -40 -34 -83 -28 -15 2 -23 1 -16 -1 14 -5 26
-33 18 -42 -3 -3 -10 1 -14 8 -7 11 -13 9 -30 -8 -17 -17 -21 -18 -21 -5 0 8
-13 29 -29 45 -26 25 -27 29 -10 29 21 0 25 15 7 26 -7 4 -8 3 -4 -4 4 -7 2
-12 -4 -12 -7 0 -9 8 -5 21 5 15 4 19 -4 15 -17 -11 -13 0 6 15 9 8 14 9 10 3
-4 -6 2 -19 12 -29 11 -9 18 -25 16 -35 -2 -10 3 -21 11 -24 8 -3 13 -2 10 3
-3 5 3 11 14 14 11 3 20 13 20 22 0 9 4 14 9 11 5 -4 7 4 3 16 -3 13 -1 19 5
15 6 -4 16 0 23 8 15 18 7 19 -21 5 -10 -6 -19 -17 -19 -24 0 -8 -7 -17 -16
-20 -9 -3 -12 -11 -8 -18 6 -11 5 -10 -8 0 -13 10 -17 43 -8 62 1 3 3 10 4 15
8 42 41 61 52 30 8 -21 23 -19 19 3 -4 27 7 38 16 14 5 -12 14 -23 21 -23z
m-139 -169 c3 -11 0 -23 -5 -27 -7 -3 -8 -1 -4 5 4 7 3 12 -2 12 -6 0 -12 7
-16 15 -3 9 0 15 8 15 8 0 16 -9 19 -20z m140 -7 c4 -3 2 -12 -4 -20 -9 -9 -8
-13 0 -13 6 0 11 -7 11 -15 0 -12 -5 -10 -21 6 -17 17 -23 18 -35 8 -13 -11
-11 -14 13 -24 22 -9 24 -12 10 -18 -9 -3 -19 -2 -22 3 -11 18 -35 11 -28 -7
3 -10 3 -15 -2 -11 -13 12 -45 -12 -45 -34 0 -21 0 -21 -16 -2 -8 10 -13 13
-9 7 3 -7 1 -13 -4 -13 -19 0 -12 28 10 44 12 8 28 12 35 9 8 -3 14 0 14 6 0
6 -4 11 -9 11 -16 0 -20 28 -5 34 8 3 12 2 9 -4 -6 -10 34 -5 44 6 3 4 -2 4
-11 1 -12 -4 -18 -1 -18 9 0 11 4 12 19 5 14 -8 22 -7 31 4 14 16 23 19 33 8z
m297 -20 c0 -10 -4 -14 -8 -8 -4 6 -11 13 -16 18 -5 4 -2 7 7 7 10 0 17 -8 17
-17z m-29 -7 c5 3 9 -1 9 -10 0 -8 6 -17 13 -20 6 -3 -1 -3 -18 1 -28 5 -29 4
-11 -9 14 -11 16 -17 7 -22 -6 -4 -18 -3 -25 4 -11 8 -15 8 -18 -1 -6 -17 -46
-19 -52 -3 -4 10 1 11 18 4 21 -8 26 -4 42 32 10 22 20 35 22 29 2 -6 8 -9 13
-5z m-41 -17 c0 -5 -4 -9 -10 -9 -5 0 -10 7 -10 16 0 8 5 12 10 9 6 -3 10 -10
10 -16z m-390 -39 c-12 -23 -16 -24 -26 -8 -4 6 -3 8 3 5 6 -4 13 0 17 8 3 8
8 15 11 15 3 0 1 -9 -5 -20z m310 -40 c0 -5 -4 -10 -9 -10 -6 0 -13 5 -16 10
-3 6 1 10 9 10 9 0 16 -4 16 -10z m-264 -60 c0 -14 -3 -16 -13 -8 -10 8 -13 6
-13 -5 0 -8 6 -18 13 -20 9 -4 9 -6 -1 -6 -7 -1 -16 7 -19 17 -4 9 -14 22 -22
29 -9 7 -11 13 -5 13 5 0 15 -5 22 -12 7 -7 12 -8 12 -2 0 6 -6 16 -12 23 -11
10 -8 10 12 1 14 -6 26 -20 26 -30z m314 18 c0 -16 -3 -19 -11 -11 -6 6 -8 16
-5 22 11 17 16 13 16 -11z m-25 -48 c-3 -5 0 -10 7 -10 9 -1 9 -3 -2 -9 -17
-10 -56 -8 -66 2 -4 4 0 7 9 7 13 0 17 9 17 36 l0 37 21 -27 c11 -14 17 -30
14 -36z m-220 40 c-4 -6 5 -10 19 -10 14 0 26 -5 26 -11 0 -5 -5 -7 -10 -4 -6
4 -18 4 -27 1 -12 -5 -13 -9 -3 -21 11 -13 10 -14 -3 -9 -8 3 -18 12 -21 20
-3 9 -1 12 4 9 6 -3 10 -1 10 4 0 6 -6 11 -12 11 -9 0 -8 4 2 10 19 12 23 12
15 0z m158 -30 c-9 -11 -19 -16 -22 -12 -4 4 -10 11 -16 15 -6 5 -3 7 7 3 10
-3 20 -1 23 4 4 6 10 10 15 10 6 0 2 -9 -7 -20z m-368 -15 c-1 -14 2 -25 6
-25 12 0 11 -42 -2 -60 -8 -12 -10 -9 -6 13 2 15 1 27 -3 27 -6 0 -7 56 -1 68
5 11 9 -3 6 -23z m243 -10 c-3 -3 -9 2 -12 12 -6 14 -5 15 5 6 7 -7 10 -15 7
-18z m-63 6 c3 -5 2 -12 -3 -15 -5 -3 -9 1 -9 9 0 17 3 19 12 6z m-238 -41 c4
-8 7 -27 8 -42 l3 -27 -18 22 c-10 12 -15 23 -10 25 5 2 7 18 5 35 -3 18 -3
25 1 17 3 -8 8 -22 11 -30z m180 24 c-3 -3 -12 -4 -19 -1 -8 3 -5 6 6 6 11 1
17 -2 13 -5z m350 -18 c0 -8 -6 -12 -12 -9 -7 2 -19 -3 -28 -12 -10 -10 -18
-12 -22 -4 -4 6 -19 7 -35 4 -17 -4 -31 -2 -35 5 -5 7 0 11 11 9 11 -2 24 0
31 4 6 4 14 3 17 -2 3 -5 15 -7 26 -4 11 3 17 9 14 14 -3 5 3 9 14 9 10 0 19
-6 19 -14z m53 2 c0 -9 4 -8 10 2 5 8 10 13 11 10 0 -3 2 -13 4 -22 4 -23 -7
-23 -35 2 -18 16 -20 20 -7 20 10 0 17 -6 17 -12z m-255 -18 c3 -6 -1 -7 -9
-4 -18 7 -21 14 -7 14 6 0 13 -4 16 -10z m-284 -53 c-1 -12 -15 -9 -19 4 -3 6
1 10 8 8 6 -3 11 -8 11 -12z m-634 -130 c-2 -23 -3 -1 -3 48 0 50 1 68 3 42 2
-26 2 -67 0 -90z m628 74 c3 -5 2 -12 -3 -15 -5 -3 -9 1 -9 9 0 17 3 19 12 6z
m15 -64 c0 -7 -4 -6 -10 3 -8 12 -10 12 -10 1 0 -8 -3 -12 -6 -8 -9 9 6 28 17
22 5 -4 9 -12 9 -18z m317 -23 c-3 -3 -12 -4 -19 -1 -8 3 -5 6 6 6 11 1 17 -2
13 -5z m-386 -46 c-1 -5 -1 -17 -1 -29 0 -16 -4 -19 -20 -14 -11 4 -20 2 -20
-4 0 -6 9 -11 20 -11 11 0 20 -4 20 -9 0 -5 -12 -8 -26 -5 -16 3 -23 1 -19 -6
3 -5 13 -10 21 -10 9 0 3 -12 -18 -36 -32 -34 -33 -35 -48 -16 -17 21 -67 51
-56 34 3 -6 -2 -13 -11 -16 -10 -3 -6 -4 9 -2 20 2 32 -3 43 -20 14 -21 14
-24 0 -24 -8 0 -15 5 -15 11 0 7 -10 5 -25 -5 -13 -9 -31 -16 -39 -16 -8 0
-17 -6 -20 -12 -3 -7 -5 1 -5 17 2 50 -1 69 -7 62 -4 -4 -7 -26 -8 -51 -1 -39
1 -43 19 -39 37 8 50 11 50 13 0 1 11 3 23 6 16 3 22 0 19 -8 -2 -7 -9 -12
-15 -11 -5 1 -16 -5 -24 -15 -12 -15 -11 -16 5 -3 9 7 17 9 17 3 0 -14 -25
-33 -33 -25 -4 3 -7 -3 -7 -15 0 -19 -3 -20 -26 -11 -15 5 -29 7 -32 4 -3 -3
1 -5 9 -5 12 0 11 -2 -1 -11 -12 -9 -12 -10 3 -5 12 4 17 2 14 -6 -2 -7 -13
-13 -24 -13 -12 0 -25 -4 -29 -8 -5 -4 -1 -5 9 -1 24 9 21 -13 -3 -26 -11 -6
-18 -15 -15 -20 8 -14 -13 -22 -31 -12 -11 6 -13 11 -5 16 6 4 11 2 11 -3 0
-6 4 -11 8 -11 17 0 8 29 -10 33 -10 3 -15 1 -12 -4 3 -5 -2 -12 -11 -15 -13
-6 -14 -8 -3 -15 11 -7 10 -11 -2 -20 -12 -8 -9 -9 10 -3 l25 6 -22 -24 c-13
-13 -23 -28 -23 -32 0 -4 -12 -19 -26 -34 -14 -15 -33 -39 -42 -54 -16 -28
-45 -37 -57 -19 -3 6 3 14 12 20 12 7 13 10 4 11 -8 0 -11 6 -7 18 6 16 5 16
-7 0 -8 -10 -16 -15 -19 -12 -4 3 -9 0 -14 -7 -4 -8 -3 -10 4 -5 7 4 12 1 12
-9 0 -13 -4 -14 -22 -4 -21 11 -22 10 -7 -6 14 -14 32 -21 62 -24 4 -1 7 -6 7
-11 0 -13 -49 -5 -64 10 -14 14 -27 13 -24 -2 2 -7 -2 -12 -9 -11 -7 2 -10 -3
-7 -11 3 -7 -2 -16 -10 -19 -9 -4 -14 -1 -11 6 14 46 14 77 0 77 -17 0 -21 29
-5 31 6 1 15 3 20 4 6 1 18 3 28 4 14 1 14 3 3 10 -11 7 -7 13 17 25 38 20 42
20 42 2 0 -8 4 -18 10 -21 7 -4 7 3 0 19 -5 14 -6 26 -2 26 4 0 0 5 -8 10 -12
8 -11 10 7 10 12 0 25 -4 28 -10 3 -5 1 -10 -6 -10 -7 0 -9 -3 -6 -6 4 -4 13
-1 21 5 8 7 17 8 20 3 3 -5 15 -12 26 -15 17 -4 18 -2 9 14 -5 11 -14 17 -19
14 -5 -3 -22 1 -38 9 -17 9 -34 11 -42 6 -9 -5 -19 -5 -27 2 -9 7 -13 7 -13 0
0 -6 5 -14 10 -17 6 -3 10 -12 10 -18 0 -7 -4 -6 -10 3 -9 13 -11 11 -13 -10
0 -3 -11 -15 -23 -27 l-23 -21 -13 29 c-7 16 -21 29 -30 29 -10 0 -18 5 -18
10 0 6 -7 10 -16 10 -9 0 -14 6 -11 13 11 31 18 61 10 52 -8 -11 -32 -14 -34
-5 -2 17 16 40 27 36 7 -3 16 -1 19 5 4 5 10 7 14 5 4 -3 8 1 8 8 0 8 -8 11
-19 8 -10 -2 -15 -9 -11 -15 3 -6 1 -7 -6 -3 -9 6 -9 11 1 23 11 14 10 15 -10
9 -27 -9 -29 5 -2 29 17 16 20 16 26 2 4 -11 12 -13 32 -7 52 15 57 15 54 0
-2 -8 0 -12 4 -8 4 4 13 3 21 -3 10 -9 13 -8 13 0 0 7 4 10 9 6 6 -3 8 -15 6
-26 -4 -17 -2 -19 10 -9 12 10 15 10 15 0 0 -7 -8 -19 -17 -27 -10 -7 -13 -13
-8 -12 22 3 36 -1 31 -10 -3 -5 1 -11 9 -15 8 -3 15 -4 15 -3 0 1 -4 17 -9 34
-6 21 -6 35 0 39 5 3 9 2 8 -3 -5 -27 3 -51 19 -55 18 -5 42 13 42 31 0 5 7
11 17 13 14 3 14 5 -2 18 -11 8 -16 10 -13 5 4 -6 -2 -22 -13 -35 -20 -24 -20
-24 -14 -2 4 13 2 22 -5 22 -6 0 -9 -4 -6 -8 2 -4 1 -14 -3 -21 -6 -9 -10 -3
-13 18 -3 19 0 32 9 35 7 3 13 0 13 -7 0 -7 5 -4 11 6 5 9 16 17 23 17 8 0 20
7 27 17 13 15 12 15 -8 4 -26 -13 -29 -5 -8 23 8 11 15 25 15 30 -1 6 -6 1
-13 -11 -9 -16 -16 -20 -27 -13 -8 5 -11 10 -6 10 5 0 1 9 -9 20 -19 21 -7 28
13 8 9 -9 12 -7 12 9 0 16 8 23 33 29 17 3 47 19 66 34 22 19 41 27 58 24 13
-3 31 2 39 11 9 8 22 15 30 15 8 0 14 5 14 12 0 6 3 8 6 5 4 -3 15 -2 25 3 12
7 19 6 22 -3 2 -7 9 -3 16 11 11 21 43 28 42 10z m53 -16 c3 -5 -1 -9 -9 -9
-8 0 -15 4 -15 9 0 4 4 8 9 8 6 0 12 -4 15 -8z m-4 -26 c0 -3 -4 -8 -10 -11
-5 -3 -10 -1 -10 4 0 6 5 11 10 11 6 0 10 -2 10 -4z m3 -44 c-10 -10 -20 -14
-22 -9 -2 5 3 13 10 18 24 15 30 10 12 -9z m-42 -25 c-10 -9 -11 -8 -5 6 3 10
9 15 12 12 3 -3 0 -11 -7 -18z m534 -76 c2 -14 0 -19 -7 -15 -10 7 -9 -4 8
-71 3 -12 2 -15 -3 -9 -15 21 -53 27 -59 10 -7 -17 -34 -22 -34 -6 0 6 4 10 9
10 14 0 23 32 11 44 -17 17 -12 36 8 29 14 -5 15 -3 5 7 -10 11 -15 11 -27 0
-9 -7 -13 -17 -9 -23 3 -6 1 -7 -5 -3 -12 7 -5 36 9 36 5 0 9 3 8 8 -3 21 15
53 27 48 8 -3 14 0 14 7 0 17 40 -47 45 -72z m-508 53 c0 -10 -7 -14 -17 -11
-13 3 -16 -1 -13 -17 4 -17 3 -18 -6 -6 -10 13 -15 8 -12 -12 0 -5 -6 -8 -14
-8 -13 0 -11 6 6 30 12 16 26 27 30 24 4 -2 10 0 14 6 9 14 12 13 12 -6z
m1478 5 c11 -17 -1 -21 -15 -4 -8 9 -8 15 -2 15 6 0 14 -5 17 -11z m-958 -21
c-3 -8 -6 -5 -6 6 -1 11 2 17 5 13 3 -3 4 -12 1 -19z m1093 -34 c0 -11 -31 18
-42 40 -8 16 -4 15 16 -6 14 -15 26 -30 26 -34z m-1010 32 c0 -8 9 -18 21 -21
11 -4 19 -9 16 -11 -9 -10 -54 15 -54 30 0 9 4 16 9 16 4 0 8 -6 8 -14z m670
5 c0 9 3 9 14 0 7 -6 21 -9 30 -5 9 3 16 1 16 -5 0 -6 -6 -11 -14 -11 -8 0
-17 -6 -19 -12 -3 -8 -6 -6 -6 5 -1 16 -21 25 -21 9 0 -4 -9 -8 -20 -9 -11 -1
-18 2 -15 8 4 5 1 9 -5 9 -6 0 -8 5 -5 10 4 7 13 7 26 0 14 -8 19 -7 19 1z
m-2020 -11 c0 -5 -8 -10 -17 -10 -15 0 -16 2 -3 10 19 12 20 12 20 0z m1633
-1 c-8 -8 -16 -8 -30 0 -16 9 -14 10 12 11 21 0 26 -3 18 -11z m82 1 c3 -5 1
-10 -4 -10 -6 0 -11 5 -11 10 0 6 2 10 4 10 3 0 8 -4 11 -10z m55 2 c0 -4 -9
-8 -20 -9 -11 -1 -18 2 -15 8 7 11 35 12 35 1z m110 -2 c0 -5 -2 -10 -4 -10
-3 0 -8 5 -11 10 -3 6 -1 10 4 10 6 0 11 -4 11 -10z m47 -5 c0 -8 -4 -12 -9
-9 -4 3 -8 9 -8 15 0 5 4 9 8 9 5 0 9 -7 9 -15z m-1621 -11 c-4 -11 3 -18 25
-26 17 -6 27 -13 22 -17 -4 -3 -8 -13 -8 -21 0 -9 -7 -14 -18 -12 -11 2 -24
-4 -31 -14 -7 -9 -18 -14 -24 -10 -17 10 -15 26 2 20 7 -3 16 2 19 10 4 9 1
15 -5 13 -7 -1 -14 6 -16 17 -2 11 0 16 7 12 6 -4 11 -3 11 3 0 5 -5 13 -10
16 -14 9 -3 25 17 25 10 0 13 -6 9 -16z m459 8 c-14 -10 -17 -32 -5 -32 7 0 7
-7 -1 -22 -9 -18 -9 -20 4 -15 9 3 18 -1 22 -11 5 -14 7 -14 15 -2 5 8 11 12
14 10 2 -3 -4 -16 -15 -29 -17 -21 -19 -21 -19 -4 0 13 -12 24 -36 33 -20 8
-31 16 -25 18 6 2 11 17 11 33 0 23 4 29 23 29 12 0 18 -4 12 -8z m812 2 c-3
-3 -12 -4 -19 -1 -8 3 -5 6 6 6 11 1 17 -2 13 -5z m257 -2 c2 -4 -4 -9 -15 -9
-11 -1 -17 2 -14 8 7 11 22 12 29 1z m-540 -52 c5 -17 4 -20 -2 -10 -5 8 -13
26 -16 40 -5 17 -4 20 2 10 5 -8 13 -26 16 -40z m-1036 18 c-2 -13 3 -28 11
-34 11 -9 6 -11 -24 -9 -45 1 -68 26 -46 47 8 7 11 8 8 3 -9 -17 9 -39 26 -32
10 4 13 13 10 26 -3 13 -1 21 7 21 6 0 10 -10 8 -22z m1165 -8 c-3 -11 -9 -18
-13 -15 -7 4 -7 18 -1 43 1 2 5 1 10 -2 5 -3 7 -15 4 -26z m274 24 c-3 -3 -12
-4 -19 -1 -8 3 -5 6 6 6 11 1 17 -2 13 -5z m-1517 -28 c0 -19 -31 -29 -44 -16
-8 8 -6 9 5 5 10 -4 19 0 22 9 8 20 17 21 17 2z m1350 5 c0 -6 9 -8 20 -6 23
4 25 -3 6 -28 -10 -13 -15 -14 -23 -5 -16 21 -23 48 -13 48 6 0 10 -4 10 -9z
m-358 -32 c-2 -8 -12 -23 -23 -35 -10 -11 -19 -29 -20 -40 0 -16 -2 -16 -10 5
-7 18 -14 22 -34 17 -34 -9 -32 0 4 19 23 11 31 12 34 2 4 -9 6 -9 6 0 1 6 -4
15 -9 18 -8 5 -7 11 1 21 14 17 55 11 51 -7z m-102 -4 c-7 -8 -17 -15 -23 -15
-6 0 -2 7 9 15 25 19 30 19 14 0z m529 -13 c0 -11 -2 -12 -6 -4 -2 6 -9 10
-14 7 -5 -4 -6 1 -3 9 8 20 24 11 23 -12z m31 18 c0 -5 -4 -10 -10 -10 -5 0
-10 5 -10 10 0 6 5 10 10 10 6 0 10 -4 10 -10z m37 -12 c-3 -8 -6 -5 -6 6 -1
11 2 17 5 13 3 -3 4 -12 1 -19z m-316 -2 c10 9 19 13 19 8 0 -5 12 -17 26 -27
25 -18 26 -18 46 0 12 10 18 12 14 6 -4 -7 -2 -13 3 -13 6 0 11 -7 11 -15 0
-13 -4 -14 -20 -5 -16 9 -18 8 -14 -5 4 -10 0 -15 -11 -15 -9 0 -14 4 -10 9
11 20 -12 19 -29 0 -21 -25 -42 -20 -38 10 2 14 -1 21 -10 20 -7 -1 -21 1 -31
6 -14 6 -15 10 -6 22 11 12 14 12 22 -2 8 -15 10 -15 28 1z m965 -23 c-6 -21
-9 -24 -17 -12 -5 7 -9 19 -9 24 0 6 5 3 10 -5 8 -12 10 -10 10 9 0 13 3 22 6
18 4 -3 3 -18 0 -34z m-1621 -43 c-3 -4 1 -11 7 -13 8 -4 9 -6 2 -6 -6 -1 -18
7 -25 16 -10 11 -10 14 -1 9 6 -4 12 -3 12 3 0 5 -13 12 -30 16 -37 8 -52 28
-16 21 19 -3 26 0 27 12 0 10 7 2 15 -16 8 -18 12 -37 9 -42z m-1065 41 c0
-11 -4 -23 -10 -26 -6 -4 -10 5 -10 19 0 14 5 26 10 26 6 0 10 -9 10 -19z
m435 -12 c4 -6 4 -13 0 -17 -3 -3 -10 -1 -14 7 -11 18 -14 18 -32 1 -15 -13
-13 -17 13 -42 17 -15 34 -25 39 -22 5 3 9 -2 9 -10 0 -8 -4 -18 -10 -21 -5
-3 -10 1 -10 9 0 19 -11 21 -28 4 -9 -9 -12 -7 -12 10 0 12 -4 22 -10 22 -5 0
-10 -10 -10 -22 0 -40 -10 -12 -15 40 -4 52 0 57 34 53 7 -2 10 2 6 9 -6 9 -2
9 13 1 12 -6 24 -16 27 -22z m827 13 c3 -11 0 -19 -7 -19 -8 0 -11 7 -7 15 4
11 1 13 -8 7 -9 -5 -11 -4 -6 3 11 17 23 15 28 -6z m126 3 c-2 -6 -7 -9 -11
-7 -4 1 -7 -3 -5 -10 3 -15 -3 -18 -33 -18 -12 0 -17 4 -14 11 4 6 13 8 20 5
8 -3 17 4 20 15 4 11 11 19 17 17 5 -2 8 -8 6 -13z m259 -7 c-3 -8 -6 -5 -6 6
-1 11 2 17 5 13 3 -3 4 -12 1 -19z m1177 8 c-3 -8 -17 -16 -32 -19 l-26 -5 25
19 c29 22 40 24 33 5z m-2857 -18 c-3 -8 -6 -5 -6 6 -1 11 2 17 5 13 3 -3 4
-12 1 -19z m136 3 c3 -13 -1 -21 -14 -24 -15 -4 -17 -2 -9 13 7 13 6 20 -3 23
-7 4 -6 6 4 6 9 1 19 -8 22 -18z m47 3 c0 -9 -7 -14 -17 -12 -25 5 -28 28 -4
28 12 0 21 -6 21 -16z m1164 1 c-4 -8 -8 -15 -10 -15 -2 0 -4 7 -4 15 0 8 4
15 10 15 5 0 7 -7 4 -15z m756 0 c-14 -16 -25 -21 -16 -6 4 5 0 12 -6 14 -7 3
-2 6 11 6 20 1 21 -1 11 -14z m215 -5 c15 0 25 -7 28 -22 5 -21 5 -21 -7 -5
-7 9 -23 17 -35 17 -14 0 -21 6 -20 18 0 10 3 12 6 5 2 -7 15 -13 28 -13z
m470 -12 c-4 -45 -3 -44 -19 -23 -13 18 -14 18 -25 -3 -12 -23 -35 -29 -45
-13 -4 5 4 7 16 3 14 -3 19 -2 14 6 -4 7 -2 12 4 12 7 0 10 7 6 15 -4 13 -2
13 14 5 15 -8 20 -6 25 10 9 29 13 24 10 -12z m-1155 7 c7 -8 17 -12 23 -8 5
3 7 1 3 -5 -3 -6 -1 -14 4 -17 7 -5 5 -11 -6 -19 -13 -10 -14 -17 -5 -34 7
-13 8 -22 2 -22 -5 0 -11 7 -13 17 -3 15 -4 15 -17 -1 -8 -9 -10 -16 -5 -15
14 3 44 -12 44 -22 0 -6 -8 -5 -19 1 -26 13 -31 13 -25 -4 3 -8 1 -17 -4 -20
-5 -3 -8 5 -7 18 2 13 -1 29 -6 37 -6 10 -9 6 -9 -14 0 -17 -4 -26 -10 -22 -6
4 -8 10 -5 15 3 5 1 12 -5 15 -16 10 10 37 28 30 22 -8 33 4 21 26 -24 46 -17
78 11 44z m440 -11 c0 -8 6 -14 14 -14 19 0 28 -27 10 -34 -8 -3 -14 1 -14 10
0 10 -6 14 -15 10 -10 -3 -18 1 -22 11 -4 9 -1 19 5 21 7 2 9 9 6 14 -4 7 -2
8 4 4 7 -4 12 -14 12 -22z m-917 -20 c-1 -10 3 -22 9 -25 12 -7 47 8 60 26 4
6 8 6 8 1 0 -5 7 -3 16 5 13 11 15 10 12 -3 -1 -9 2 -16 7 -15 6 1 9 5 8 8 -1
3 4 6 12 6 8 0 12 -4 10 -8 -3 -4 4 -5 15 -2 14 4 20 0 20 -11 0 -20 -32 -35
-38 -18 -5 16 -18 15 -37 -4 -20 -20 -33 -11 -15 11 9 11 9 15 1 15 -6 0 -14
-7 -17 -15 -4 -8 -10 -15 -16 -15 -5 0 -6 6 -2 13 6 9 4 9 -8 -1 -8 -7 -23
-10 -32 -7 -9 3 -24 7 -33 10 -12 4 -13 9 -5 17 6 6 8 17 5 26 -4 10 -1 13 8
10 8 -3 13 -14 12 -24z m354 4 c2 -22 1 -22 -13 -4 -8 11 -14 15 -14 10 0 -6
-7 -11 -16 -11 -14 0 -14 2 2 14 26 19 40 16 41 -9z m83 12 c0 -5 -7 -6 -17
-3 -12 5 -14 3 -8 -7 5 -8 3 -11 -5 -8 -26 8 -22 28 4 28 14 0 26 -4 26 -10z
m313 -22 c13 -8 -19 -41 -33 -33 -5 3 -10 14 -10 23 0 15 2 15 10 2 7 -12 10
-8 11 15 0 17 3 23 6 15 3 -8 11 -18 16 -22z m311 22 c12 9 15 8 13 -8 0 -12
-6 -18 -14 -15 -17 7 -17 -14 0 -20 6 -3 0 -5 -15 -4 -15 1 -24 5 -21 10 3 4
-1 8 -8 6 -29 -3 -50 1 -44 11 3 5 12 7 20 4 8 -4 18 1 21 10 5 13 9 14 20 5
11 -9 18 -9 28 1z m286 -10 c0 -4 -10 -6 -22 -5 -30 3 -30 3 -24 14 7 10 46 3
46 -9z m133 13 c-7 -2 -21 -2 -30 0 -10 3 -4 5 12 5 17 0 24 -2 18 -5z m-2193
-13 c0 -5 -2 -10 -4 -10 -3 0 -8 5 -11 10 -3 6 -1 10 4 10 6 0 11 -4 11 -10z
m1485 -1 c4 -6 13 -8 20 -5 7 2 15 -4 18 -15 3 -10 1 -17 -4 -13 -5 3 -9 -2
-9 -11 0 -9 5 -13 10 -10 6 3 10 -4 10 -17 0 -25 20 -64 20 -39 0 7 6 11 14 8
14 -6 32 21 21 31 -3 3 -5 -1 -6 -9 -1 -8 -4 -3 -8 11 -4 14 -13 24 -19 23 -7
-2 -9 4 -5 14 5 13 9 11 25 -11 11 -14 24 -24 28 -21 5 3 12 0 16 -6 5 -8 3
-9 -6 -4 -10 6 -12 3 -8 -13 4 -14 2 -22 -6 -22 -7 0 -13 -7 -13 -15 0 -8 7
-15 14 -15 8 0 11 5 8 10 -10 17 4 11 24 -9 17 -17 18 -21 5 -32 -11 -9 -14
-8 -14 4 0 10 -6 14 -14 11 -13 -5 -30 11 -31 29 0 4 -4 6 -10 5 -12 -4 -8
-57 6 -74 7 -8 7 -14 -1 -19 -5 -3 -10 -1 -10 5 0 6 -5 8 -11 5 -7 -5 -9 3 -6
24 4 22 1 31 -9 31 -8 0 -14 5 -14 11 0 5 6 7 13 4 6 -4 -1 5 -16 19 -16 15
-33 24 -38 21 -5 -4 -9 -3 -10 2 0 4 -2 16 -4 26 -2 9 0 17 4 17 12 0 11 44
-2 52 -9 6 -9 8 0 8 6 0 15 -5 18 -11z m365 1 c0 -5 -2 -10 -4 -10 -3 0 -8 5
-11 10 -3 6 -1 10 4 10 6 0 11 -4 11 -10z m407 4 c-3 -3 -12 -4 -19 -1 -8 3
-5 6 6 6 11 1 17 -2 13 -5z m-2747 -26 c0 -6 -6 -5 -15 2 -8 7 -15 14 -15 16
0 2 7 1 15 -2 8 -4 15 -11 15 -16z m1415 -5 c-9 -8 -18 -13 -21 -10 -8 8 19
36 29 30 4 -2 0 -11 -8 -20z m399 11 c21 9 39 10 47 5 12 -7 11 -9 -1 -10 -8
-1 -19 -1 -25 1 -5 1 -1 -7 8 -18 10 -11 14 -22 9 -23 -5 -2 -13 -15 -17 -29
-7 -23 -7 -23 10 -6 12 11 26 15 41 12 17 -5 24 -2 24 9 0 18 -1 18 -37 5 -26
-9 -27 -9 -9 5 11 8 14 15 8 15 -7 0 -12 5 -12 10 0 6 7 10 15 10 8 0 15 -4
15 -8 0 -5 11 -15 25 -22 14 -7 25 -17 25 -22 0 -5 -4 -7 -9 -4 -5 3 -14 -1
-21 -9 -9 -10 -9 -15 -1 -15 6 0 11 -7 11 -15 0 -8 7 -15 15 -15 8 0 15 8 15
18 0 15 -2 15 -11 2 -9 -13 -10 -13 -6 0 2 9 14 14 28 12 40 -4 48 -10 42 -31
-3 -12 -9 -18 -14 -15 -5 3 -9 1 -9 -5 0 -15 18 -23 25 -11 10 16 24 2 18 -19
-3 -13 2 -23 16 -31 19 -9 25 -8 41 12 10 13 22 19 27 15 4 -5 -1 -16 -13 -26
-12 -9 -26 -27 -33 -39 -18 -34 -46 -45 -66 -26 -14 15 -14 17 1 29 9 6 14 17
10 23 -5 8 -1 10 11 5 15 -6 16 -5 3 9 -13 14 -16 14 -28 -3 -16 -23 -37 -25
-28 -4 3 8 9 23 13 32 5 12 2 15 -10 10 -9 -3 -17 -2 -17 3 0 6 6 10 13 10 6
0 4 5 -6 11 -10 6 -21 8 -24 5 -4 -3 -1 -6 5 -6 6 0 9 -6 6 -14 -3 -8 -1 -17
4 -20 5 -3 7 -17 4 -31 -2 -15 0 -25 7 -25 6 0 11 -5 11 -11 0 -5 -3 -8 -8 -5
-4 2 -16 -2 -27 -10 -10 -8 -14 -14 -8 -14 7 0 14 4 18 9 3 6 18 3 35 -7 21
-12 28 -22 24 -34 -3 -10 0 -18 6 -18 6 0 9 4 6 8 -2 4 0 14 6 22 8 12 9 12 4
-2 -5 -17 3 -22 22 -15 4 1 6 5 5 8 -1 3 9 4 22 1 14 -2 22 -8 19 -13 -3 -5
-10 -7 -15 -4 -5 4 -9 2 -9 -3 0 -5 -8 -9 -17 -9 -40 0 -53 -4 -53 -14 0 -7
10 -9 24 -5 15 4 28 1 32 -6 5 -7 2 -9 -8 -6 -8 4 -15 0 -15 -8 0 -7 4 -11 9
-8 4 3 8 -1 8 -10 0 -8 -5 -16 -11 -18 -7 -2 -4 -10 7 -18 16 -13 17 -13 9 0
-6 12 -5 13 6 3 9 -10 10 -16 2 -24 -6 -6 -9 -17 -7 -23 2 -6 -6 -11 -20 -11
-19 0 -22 3 -13 13 8 10 7 12 -4 10 -9 -2 -14 5 -13 20 1 12 -2 22 -6 22 -5 0
-6 9 -3 20 3 11 9 17 14 14 5 -3 9 0 9 6 0 6 -10 8 -24 4 -21 -5 -24 -3 -19
15 4 15 1 21 -11 21 -10 0 -14 -4 -11 -10 4 -7 -2 -7 -18 -1 -14 6 -28 7 -33
3 -4 -4 -4 -1 0 6 4 6 2 12 -3 12 -6 0 -11 -4 -11 -10 0 -5 -6 -7 -12 -5 -15
5 -27 -2 -47 -28 -12 -15 -12 -17 3 -11 9 3 16 10 16 14 0 12 47 18 62 9 10
-6 8 -9 -7 -10 -11 -1 -24 -1 -29 0 -4 1 -13 -5 -20 -12 -12 -16 -46 -30 -45
-19 4 22 -2 42 -11 37 -5 -3 -7 -13 -4 -23 5 -14 4 -14 -4 -2 -6 8 -8 18 -6
22 3 4 -3 7 -13 5 -27 -3 -28 16 -1 32 21 12 22 12 4 -2 -17 -15 -15 -16 24
-12 24 2 47 8 53 14 5 5 16 7 23 4 10 -4 13 2 12 20 -2 24 -6 33 -7 14 0 -11
-32 -36 -45 -37 -6 0 -5 5 2 12 7 7 12 20 12 30 0 23 36 24 49 1 9 -15 10 -12
7 14 -3 25 0 30 13 26 13 -4 13 -3 2 5 -9 7 -10 12 -2 16 6 4 11 12 11 19 0 6
-6 3 -13 -8 -15 -20 -39 -13 -31 9 3 7 -2 16 -10 19 -9 4 -16 11 -16 16 0 13
37 6 59 -11 14 -11 14 -11 4 2 -12 16 -13 19 -13 53 0 21 -1 21 -18 -5 -10
-15 -22 -24 -28 -20 -14 9 -39 53 -40 72 -1 8 -2 25 -3 38 0 12 -6 22 -12 22
-5 0 -7 -5 -4 -10 8 -13 -18 -8 -27 5 -4 6 -7 17 -7 25 1 11 3 10 6 -2 4 -16
8 -16 37 -4z m776 -17 c0 -5 -4 -5 -10 -2 -5 3 -10 14 -10 23 0 15 2 15 10 2
5 -8 10 -19 10 -23z m102 15 c-3 -10 -1 -13 6 -8 6 3 14 1 18 -5 5 -9 0 -10
-14 -7 -12 4 -25 2 -28 -3 -3 -5 -9 -7 -14 -4 -12 8 9 42 25 42 8 0 11 -7 7
-15z m203 8 c-3 -5 -12 -10 -18 -10 -7 0 -6 4 3 10 19 12 23 12 15 0z m-1285
-16 c8 -8 9 -14 4 -12 -11 4 -14 -4 -14 -33 0 -13 4 -18 13 -13 7 5 6 0 -3
-11 -9 -11 -10 -16 -2 -11 7 4 12 1 12 -8 0 -9 -9 -16 -20 -16 -13 0 -20 7
-20 20 0 14 -5 18 -17 13 -10 -4 -14 -2 -9 5 3 6 2 13 -4 17 -5 3 -10 15 -10
27 0 17 2 18 15 8 8 -7 15 -20 15 -28 0 -12 3 -13 12 -4 8 8 8 15 -1 26 -13
15 -7 36 8 36 5 0 14 -7 21 -16z m55 -12 c-6 -7 -34 11 -29 19 3 5 11 3 19 -4
7 -6 12 -13 10 -15z m682 -2 c1 -11 -4 -20 -10 -21 -7 0 -3 -4 8 -9 18 -8 18
-9 2 -9 -10 -1 -17 -6 -15 -13 7 -19 28 -21 28 -3 0 13 4 14 21 4 12 -6 24 -7
28 -3 9 13 31 16 31 4 0 -5 7 -10 15 -10 21 0 19 -16 -2 -16 -10 -1 -22 -2
-28 -4 -25 -6 -56 1 -49 12 4 7 3 8 -4 4 -7 -4 -12 -15 -13 -24 0 -11 -3 -12
-6 -4 -2 6 -10 12 -16 12 -20 0 -38 38 -31 65 5 21 9 23 20 14 12 -10 13 -9 8
5 -3 9 -2 16 3 16 5 0 9 -9 10 -20z m143 10 c0 -5 -2 -10 -4 -10 -3 0 -8 5
-11 10 -3 6 -1 10 4 10 6 0 11 -4 11 -10z m-2260 -10 c0 -5 -9 -10 -20 -10
-11 0 -20 5 -20 10 0 6 9 10 20 10 11 0 20 -4 20 -10z m1494 4 c21 -8 21 -24
0 -24 -8 0 -13 4 -10 9 4 5 0 12 -6 14 -7 3 -10 6 -6 6 3 1 13 -2 22 -5z
m1095 -33 c0 -14 -1 -14 -7 -1 -4 8 -13 16 -20 18 -8 1 -11 -2 -8 -7 4 -5 2
-12 -4 -16 -5 -3 -10 3 -10 14 0 10 6 21 13 24 16 6 37 -12 36 -32z m68 24 c4
-4 3 -5 -4 -1 -6 3 -14 2 -18 -3 -7 -12 -35 -3 -35 10 0 12 46 7 57 -6z m-502
-3 c-3 -3 0 -11 6 -18 7 -9 6 -12 -8 -10 -22 3 -30 33 -8 33 8 0 13 -3 10 -5z
m250 -4 c5 4 5 1 1 -5 -11 -19 -47 -17 -40 2 5 11 10 13 19 5 6 -5 16 -6 20
-2z m-1147 -35 c0 -32 -2 -35 -12 -20 -7 9 -16 14 -19 10 -4 -3 -1 6 6 21 17
36 25 33 25 -11z m50 17 c7 -11 9 -20 5 -19 -21 3 -34 -2 -28 -11 4 -6 12 -9
19 -8 12 3 16 -3 16 -27 0 -8 -3 -14 -7 -14 -20 3 -25 -2 -14 -14 8 -11 5 -19
-13 -36 -20 -19 -24 -20 -29 -7 -4 9 -11 16 -17 16 -6 0 -9 -4 -6 -9 4 -5 0
-12 -6 -14 -8 -3 -6 -6 5 -6 18 -1 23 -16 8 -26 -5 -3 -13 0 -16 5 -5 7 -12 5
-21 -7 -7 -10 -13 -13 -13 -8 0 6 6 18 14 28 7 11 11 26 8 35 -4 10 -2 13 5 8
6 -3 13 -2 17 4 3 5 -1 10 -10 10 -15 0 -15 1 -1 16 9 8 13 20 10 25 -3 6 2 9
12 7 14 -2 19 3 20 23 2 49 21 62 42 29z m1012 4 c0 -8 -6 -11 -15 -8 -8 4
-15 9 -15 13 0 4 7 8 15 8 8 0 15 -6 15 -13z m210 12 c0 -2 -7 -6 -15 -10 -8
-3 -15 -1 -15 4 0 6 7 10 15 10 8 0 15 -2 15 -4z m-951 -15 c7 -5 9 -11 5 -14
-5 -3 -15 1 -22 9 -14 16 -5 18 17 5z m788 -27 c0 -19 -2 -18 -21 11 -16 25
-16 25 2 14 10 -6 19 -18 19 -25z m68 26 c3 -5 1 -10 -4 -10 -6 0 -11 5 -11
10 0 6 2 10 4 10 3 0 8 -4 11 -10z m-909 -27 c-2 -20 -9 -28 -23 -29 -15 -1
-19 4 -15 22 2 14 9 21 18 17 8 -3 14 0 14 6 0 6 2 11 4 11 3 0 3 -12 2 -27z
m289 18 c3 -5 1 -12 -5 -16 -5 -3 -10 1 -10 9 0 18 6 21 15 7z m221 -6 c-4
-10 1 -15 17 -16 12 0 16 -3 9 -6 -21 -8 -42 5 -36 22 3 8 8 15 11 15 3 0 3
-7 -1 -15z m441 0 c0 -8 -4 -12 -9 -9 -5 3 -6 10 -3 15 9 13 12 11 12 -6z
m165 8 c-6 -3 -10 -9 -6 -14 3 -5 0 -8 -8 -7 -7 2 -12 -3 -10 -10 1 -8 -2 -11
-8 -7 -5 3 -18 1 -27 -4 -11 -6 -13 -11 -5 -11 7 0 10 -5 6 -11 -4 -7 -10 -7
-16 -1 -14 14 13 52 37 52 15 0 17 2 6 9 -9 6 -4 8 15 8 16 0 23 -2 16 -4z
m-2377 -22 c3 -11 12 -18 19 -15 7 3 19 -3 27 -13 7 -10 9 -15 5 -11 -10 8
-36 -9 -36 -23 0 -5 9 -4 20 3 23 15 35 6 26 -19 -6 -13 -9 -14 -15 -4 -6 9
-10 8 -13 -7 -4 -15 -1 -18 13 -15 11 3 19 9 19 14 0 5 5 9 12 9 6 0 8 -3 5
-7 -4 -3 -2 -12 4 -20 17 -20 19 -61 3 -67 -10 -4 -11 0 -4 20 7 17 7 23 0 19
-6 -3 -10 -1 -10 6 0 8 -3 9 -13 0 -8 -6 -18 -7 -22 -3 -5 4 -5 2 -2 -4 4 -6
1 -18 -6 -27 -10 -14 -15 -14 -30 -3 -16 12 -16 14 -2 20 9 3 13 2 10 -4 -3
-6 -1 -10 5 -10 6 0 10 8 8 18 -2 9 -8 17 -15 17 -6 0 -15 4 -20 8 -4 5 -2 7
6 5 7 -1 15 5 16 15 2 9 -1 17 -6 17 -5 0 -9 16 -9 35 0 19 -5 35 -11 35 -6 0
-8 -9 -4 -22 5 -18 4 -20 -4 -7 -11 17 -4 59 9 59 5 0 11 -9 15 -19z m2265 14
c0 -7 -30 -13 -34 -7 -3 4 4 9 15 9 10 1 19 0 19 -2z m-613 -35 c-2 -23 -27
-27 -27 -4 0 9 5 12 12 8 8 -5 9 -2 5 10 -4 9 -3 15 2 11 6 -3 9 -14 8 -25z
m749 13 c-2 -9 -9 -19 -17 -21 -11 -3 -11 -1 1 7 8 6 11 11 7 11 -5 0 -5 5 -2
10 9 15 14 12 11 -7z m-386 3 c0 -3 -4 -8 -10 -11 -5 -3 -10 -1 -10 4 0 6 5
11 10 11 6 0 10 -2 10 -4z m120 -11 c7 -9 8 -15 2 -15 -5 0 -12 7 -16 15 -3 8
-4 15 -2 15 2 0 9 -7 16 -15z m90 -21 c0 -9 -44 14 -48 25 -3 8 5 7 22 -4 14
-10 26 -19 26 -21z m50 32 c0 -3 -4 -8 -10 -11 -5 -3 -10 -1 -10 4 0 6 5 11
10 11 6 0 10 -2 10 -4z m-2380 -16 c0 -6 -19 -10 -42 -9 -28 0 -37 3 -25 8 29
11 67 12 67 1z m1294 -18 c-18 -14 -18 -14 3 -9 19 4 21 2 13 -12 -6 -12 -5
-22 1 -28 6 -6 5 -10 -5 -10 -8 0 -13 4 -10 9 3 4 0 8 -5 8 -6 0 -11 7 -11 16
0 8 -4 13 -8 10 -4 -2 -14 0 -22 5 -13 9 -13 10 0 8 23 -3 51 12 43 24 -4 6
-1 7 7 2 10 -6 9 -11 -6 -23z m491 18 c3 -5 1 -10 -4 -10 -6 0 -11 5 -11 10 0
6 2 10 4 10 3 0 8 -4 11 -10z m-1915 -10 c0 -5 -7 -7 -15 -4 -8 4 -15 8 -15
10 0 2 7 4 15 4 8 0 15 -4 15 -10z m1137 -12 c-3 -8 -6 -5 -6 6 -1 11 2 17 5
13 3 -3 4 -12 1 -19z m797 -12 c11 1 27 -2 35 -7 14 -8 14 -9 1 -8 -8 1 -26 1
-40 0 -19 -1 -22 -3 -10 -10 8 -6 18 -7 22 -5 4 3 8 1 8 -4 0 -14 -29 -36 -37
-28 -3 3 -1 6 5 6 7 0 12 5 12 10 0 16 -27 12 -34 -5 -3 -9 -12 -12 -22 -8
-13 5 -15 3 -9 -7 5 -9 4 -11 -3 -6 -9 5 -9 13 -1 28 9 17 13 18 20 7 5 -8 9
-11 10 -6 1 4 3 12 4 17 1 6 3 18 4 28 1 11 4 13 9 6 4 -6 16 -10 26 -8z m435
-20 c-3 -3 -11 5 -18 17 -13 21 -12 21 5 5 10 -10 16 -20 13 -22z m-2522 2
c-3 -8 -6 -5 -6 6 -1 11 2 17 5 13 3 -3 4 -12 1 -19z m164 2 c6 0 7 5 4 10
-10 16 11 12 25 -5 10 -12 15 -12 35 1 22 14 25 14 44 -5 12 -12 21 -31 21
-43 0 -30 -32 -98 -46 -98 -7 0 -10 -8 -7 -19 3 -11 1 -27 -5 -37 -9 -16 -10
-15 -16 4 -4 12 -13 22 -21 22 -8 0 -11 7 -8 19 3 11 -2 21 -11 24 -9 4 -16 2
-16 -3 0 -6 5 -10 11 -10 6 0 8 -7 5 -15 -3 -9 1 -18 10 -22 12 -5 13 -7 3
-14 -8 -5 -17 -3 -21 4 -4 7 -13 12 -19 12 -7 0 -14 11 -16 24 -2 14 -6 27 -9
30 -2 3 6 11 18 18 17 9 19 12 7 13 -19 0 -33 26 -19 35 6 4 7 17 4 30 -6 25
6 59 14 37 2 -7 8 -12 13 -12z m134 10 c3 -5 -1 -10 -9 -10 -9 0 -16 5 -16 10
0 6 4 10 9 10 6 0 13 -4 16 -10z m198 -7 c-7 -2 -19 -2 -25 0 -7 3 -2 5 12 5
14 0 19 -2 13 -5z m1033 -15 c-13 22 6 13 26 -13 15 -19 25 -24 42 -19 11 4
27 7 34 7 8 0 10 7 7 16 -5 14 -3 13 11 -1 14 -14 15 -20 5 -32 -8 -9 -18 -13
-24 -9 -6 3 -7 1 -3 -5 12 -20 49 6 43 29 -3 10 -1 19 5 19 5 0 6 6 2 13 -6 8
-3 8 9 -1 9 -8 16 -17 15 -20 -1 -4 2 -18 6 -32 8 -23 10 -23 16 -6 3 11 16
20 28 21 12 1 20 -1 17 -3 -3 -3 0 -11 6 -18 7 -9 6 -12 -5 -10 -9 1 -18 5
-22 9 -7 6 -22 -17 -37 -57 -5 -14 -4 -17 8 -12 19 7 20 -8 0 -24 -16 -13 -38
-4 -32 13 2 7 -2 17 -9 22 -10 7 -11 15 -4 25 9 13 11 13 21 0 8 -12 10 -10 5
10 -3 14 -6 32 -6 40 0 13 -2 13 -9 0 -6 -8 -8 -17 -6 -20 2 -3 -6 -17 -17
-30 -13 -17 -18 -19 -14 -7 4 14 2 16 -12 9 -19 -10 -43 -5 -54 12 -5 7 -8 5
-8 -6 0 -9 6 -18 13 -21 6 -2 8 -8 4 -13 -4 -5 -11 -4 -15 1 -9 12 -32 12 -51
1 -11 -7 -13 -5 -8 7 9 24 -10 21 -23 -3 -6 -11 -16 -17 -25 -14 -11 5 -13 2
-9 -10 6 -15 8 -15 23 -2 10 9 22 12 30 7 10 -6 8 -10 -6 -16 -31 -14 -42 -14
-54 1 -6 8 -16 11 -21 8 -6 -4 -8 2 -6 12 2 11 10 19 18 19 8 0 18 8 22 18 4
10 12 15 18 12 5 -3 10 0 10 7 0 11 2 11 9 0 6 -10 10 -10 21 3 11 13 15 13
21 3 7 -11 9 -11 9 0 0 8 5 10 13 6 8 -5 8 -3 -2 9 -7 9 -17 14 -22 11 -5 -3
-9 0 -9 5 0 6 -12 11 -27 10 -16 0 -22 -3 -15 -6 6 -2 12 -10 12 -15 0 -6 -3
-8 -7 -5 -3 4 -12 2 -20 -4 -8 -8 -13 -8 -13 -1 0 24 14 42 32 42 18 0 19 2 7
18 -10 13 -8 12 10 -3 14 -11 21 -14 17 -7z m1064 10 c0 -4 -4 -8 -9 -8 -6 0
-12 4 -15 8 -3 5 1 9 9 9 8 0 15 -4 15 -9z m35 2 c3 -5 -1 -10 -10 -10 -9 0
-13 5 -10 10 3 6 8 10 10 10 2 0 7 -4 10 -10z m-641 -12 c-3 -4 -12 -8 -20 -8
-8 0 -13 4 -10 8 3 5 12 9 20 9 8 0 13 -4 10 -9z m-1877 -30 c-3 -7 -5 -2 -5
12 0 14 2 19 5 13 2 -7 2 -19 0 -25z m1339 6 c-11 -8 -15 -14 -9 -14 6 0 9 -9
6 -20 -5 -18 -15 -24 -35 -21 -5 0 -8 -5 -8 -12 0 -17 -28 -18 -34 -1 -3 8 0
16 6 20 7 5 8 2 3 -6 -5 -9 -4 -11 3 -6 7 4 12 13 12 21 0 9 8 12 20 10 12 -2
18 0 14 6 -6 11 27 50 36 42 3 -3 -4 -11 -14 -19z m937 -2 c5 -28 -9 -39 -18
-13 -4 13 -11 18 -22 14 -10 -4 -14 -2 -10 4 4 6 1 14 -5 16 -7 3 1 4 19 4 24
-2 33 -7 36 -25z m-98 9 c3 -5 1 -12 -5 -16 -5 -3 -10 1 -10 9 0 18 6 21 15 7z
m189 -33 c6 -4 7 -11 2 -15 -9 -10 -36 25 -36 46 1 12 3 11 12 -4 6 -11 16
-23 22 -27z m16 32 c0 -5 -2 -10 -4 -10 -3 0 -8 5 -11 10 -3 6 -1 10 4 10 6 0
11 -4 11 -10z m131 -2 c2 -23 -2 -43 -12 -53 -7 -6 -9 3 -7 28 2 34 16 53 19
25z m-2624 -20 c-3 -8 -6 -5 -6 6 -1 11 2 17 5 13 3 -3 4 -12 1 -19z m2105
-20 c-11 -11 -5 -38 9 -38 4 0 6 7 3 15 -4 11 -1 14 12 12 26 -4 44 -16 44
-30 0 -6 -7 -2 -15 9 -14 18 -15 18 -11 -9 3 -16 1 -25 -5 -22 -5 4 -6 11 -3
17 4 6 -1 8 -14 4 -11 -4 -23 -2 -27 4 -3 6 -11 8 -16 5 -5 -4 -9 3 -9 15 0
12 4 18 11 15 6 -4 13 3 16 16 4 14 8 18 11 10 2 -7 0 -17 -6 -23z m158 22 c0
-5 -2 -10 -4 -10 -3 0 -8 5 -11 10 -3 6 -1 10 4 10 6 0 11 -4 11 -10z m169 -4
c9 -10 8 -15 -3 -19 -10 -4 -14 0 -13 14 2 23 1 23 16 5z m158 -18 c-3 -8 -6
-5 -6 6 -1 11 2 17 5 13 3 -3 4 -12 1 -19z m-543 -20 c-3 -4 1 -8 8 -8 7 -1 1
-8 -15 -16 -25 -13 -26 -16 -12 -30 20 -20 19 -23 -5 -21 -11 1 -22 9 -25 18
-3 10 -14 20 -23 22 -9 3 -3 5 14 6 18 0 34 7 38 16 6 17 -9 21 -19 5 -11 -17
-45 -12 -38 6 3 8 12 13 20 10 9 -4 11 -2 7 6 -5 8 -2 9 9 5 9 -3 19 -1 23 5
4 7 9 6 15 -3 4 -7 5 -17 3 -21z m691 14 c0 -18 -20 -15 -23 4 -3 10 1 15 10
12 7 -3 13 -10 13 -16z m-2278 -19 c-3 -3 -11 -2 -17 2 -9 6 -9 10 1 16 14 8
27 -7 16 -18z m1906 -3 c3 -11 1 -18 -4 -14 -5 3 -9 12 -9 20 0 20 7 17 13 -6z
m115 -53 c-33 -12 -75 9 -75 39 0 13 4 21 9 18 5 -3 7 -13 3 -22 -3 -9 -3 -13
1 -10 4 4 15 3 25 -3 23 -12 25 -3 4 18 -8 8 -12 19 -9 25 4 6 19 -4 35 -23
29 -34 29 -34 7 -42z m-2128 46 c0 -15 -2 -16 -10 -3 -13 20 -13 -1 0 -35 7
-19 7 -24 -1 -19 -8 4 -9 -1 -4 -16 6 -19 4 -22 -9 -17 -9 4 -16 2 -16 -3 0
-6 7 -10 15 -10 10 0 15 -10 15 -34 0 -30 -3 -34 -25 -32 -29 1 -32 11 -7 26
15 10 14 11 -6 7 -12 -3 -20 -1 -16 4 3 5 2 9 -3 9 -13 0 -30 -14 -36 -30 -4
-12 -6 -12 -6 2 -1 18 30 40 51 36 8 -2 12 7 12 24 -1 15 3 25 7 22 5 -3 9 0
9 5 0 6 -4 11 -10 11 -5 0 -10 7 -10 15 0 8 5 15 11 15 5 0 7 5 3 11 -3 6 0
15 7 20 21 13 29 11 29 -8z m205 7 c-3 -5 -11 -10 -16 -10 -6 0 -7 5 -4 10 3
6 11 10 16 10 6 0 7 -4 4 -10z m1750 1 c3 -5 2 -12 -3 -15 -5 -3 -9 1 -9 9 0
17 3 19 12 6z m-1840 -14 c12 -2 23 -25 24 -50 1 -14 -4 -17 -21 -12 -13 3
-18 3 -13 -2 13 -11 18 -36 5 -28 -6 4 -10 -5 -11 -22 0 -26 -1 -26 -9 -7 -5
12 -14 25 -20 29 -8 5 -8 10 0 20 8 9 7 14 -4 18 -9 4 -13 1 -10 -6 2 -7 -4
-13 -16 -14 -11 -1 -20 3 -20 8 0 6 5 7 10 4 6 -3 10 1 10 10 0 28 32 67 49
60 9 -4 21 -7 26 -8z m143 -12 c2 -10 0 -15 -6 -11 -6 3 -13 -2 -15 -11 -3
-13 -5 -12 -6 5 0 13 -5 20 -11 17 -5 -3 -7 0 -4 8 7 20 38 14 42 -8z m752 5
c0 -5 -2 -10 -4 -10 -3 0 -8 5 -11 10 -3 6 -1 10 4 10 6 0 11 -4 11 -10z
m1163 -5 c4 -8 3 -16 -1 -19 -4 -3 -9 4 -9 15 -2 23 3 25 10 4z m-1973 1 c0
-3 -4 -8 -10 -11 -5 -3 -10 -1 -10 4 0 6 5 11 10 11 6 0 10 -2 10 -4z m1101
-6 c10 -6 19 -15 19 -21 0 -5 -13 -3 -30 6 -16 9 -30 18 -30 20 0 8 20 6 41
-5z m449 -16 c0 -8 -5 -14 -11 -14 -5 0 -7 5 -4 10 3 6 2 10 -3 10 -16 0 -21
-12 -9 -25 16 -17 47 3 39 24 -3 9 -2 13 3 9 4 -4 9 -19 11 -33 2 -22 0 -24
-12 -14 -8 7 -14 7 -14 1 0 -12 -49 -22 -55 -12 -3 5 1 10 7 13 10 3 8 10 -5
25 -13 15 -15 21 -5 24 22 8 58 -4 58 -18z m124 11 c3 -8 -2 -19 -12 -24 -22
-12 -73 -11 -66 1 3 5 12 7 20 4 17 -7 44 3 44 16 0 5 -5 6 -12 2 -7 -4 -8 -3
-4 4 10 16 23 15 30 -3z m-1708 -4 c-4 -5 -1 -11 6 -13 8 -3 6 -6 -4 -10 -11
-5 -15 -2 -13 10 5 23 4 22 11 22 3 0 3 -4 0 -9z m830 1 c7 -5 5 -14 -9 -27
-11 -11 -17 -15 -13 -8 3 6 2 14 -4 18 -6 4 -8 11 -5 16 7 11 16 11 31 1z
m198 -45 c-2 -7 -17 -12 -32 -11 -15 0 -36 -5 -47 -12 -11 -8 -24 -14 -30 -14
-5 1 1 7 14 14 19 11 21 14 7 19 -9 4 -16 2 -16 -3 0 -6 -13 -8 -30 -5 -22 4
-30 1 -30 -10 0 -8 -5 -15 -11 -15 -5 0 -8 4 -5 9 3 4 -7 7 -22 5 l-27 -3 24
20 c13 10 32 19 43 19 11 0 16 5 13 10 -4 7 3 10 20 7 15 -2 30 -8 33 -14 11
-17 58 -21 54 -5 -1 8 2 11 7 8 5 -4 13 4 17 16 l7 23 8 -23 c5 -12 6 -28 3
-35z m80 37 c9 -3 16 -10 16 -16 0 -5 -4 -7 -9 -4 -5 3 -11 -1 -15 -9 -5 -15
0 -22 39 -50 19 -15 19 -15 -6 -9 -15 3 -30 1 -33 -4 -3 -5 0 -10 7 -9 31 1
44 -4 44 -18 0 -10 -4 -12 -12 -5 -6 5 -20 7 -30 6 -11 -2 -26 1 -32 7 -9 6
-13 6 -13 -2 0 -10 13 -15 33 -12 4 0 7 -10 7 -23 0 -13 8 -30 17 -37 11 -10
14 -10 9 -2 -5 9 0 12 15 10 12 -1 24 4 27 12 3 8 0 11 -6 7 -6 -3 -14 -2 -17
4 -9 15 39 8 59 -9 9 -7 16 -21 16 -30 -1 -14 -2 -14 -11 2 -13 23 -30 22 -58
-4 -19 -18 -24 -19 -38 -7 -12 9 -15 9 -9 1 4 -8 2 -13 -5 -13 -6 0 -9 8 -6
20 6 25 -1 26 -19 3 -15 -21 -18 -37 -5 -29 5 3 11 -3 14 -15 4 -16 3 -18 -8
-9 -10 8 -14 7 -18 -2 -6 -14 -8 4 -10 99 -1 33 1 56 5 50 5 -7 8 -8 9 -2 1 6
3 15 4 20 2 6 3 15 4 20 1 6 6 3 12 -5 9 -13 10 -13 6 0 -2 8 -14 14 -26 13
-29 -4 -27 5 5 17 17 7 24 15 20 25 -6 17 -4 18 18 9z m-319 -24 c3 -5 -1 -10
-10 -10 -9 0 -13 5 -10 10 3 6 8 10 10 10 2 0 7 -4 10 -10z m1011 -15 c-3 -9
-11 -13 -16 -10 -8 5 -7 11 1 21 14 18 24 11 15 -11z m231 0 c-15 -16 -22 -11
-13 10 3 9 10 13 16 10 6 -4 5 -11 -3 -20z m-1957 -1 c0 -9 -5 -14 -12 -12
-18 6 -21 28 -4 28 9 0 16 -7 16 -16z m1666 3 c4 -3 -2 -5 -13 -3 -11 3 -26 0
-34 -5 -12 -7 -12 -9 1 -10 8 0 4 -4 -10 -8 -27 -8 -60 3 -60 20 0 6 7 3 16
-5 14 -15 18 -14 40 3 24 19 47 22 60 8z m211 -1 c-11 -9 -14 -17 -8 -20 6 -4
8 -13 5 -21 -4 -8 -10 -12 -15 -9 -5 3 -6 -2 -3 -11 7 -18 -42 -70 -51 -54 -4
5 -1 9 4 9 17 0 13 38 -5 48 -11 6 -13 11 -5 16 6 4 11 3 11 -3 0 -14 27 -3
34 15 3 7 2 13 -2 13 -18 -3 -24 2 -14 14 6 7 23 13 39 15 26 1 27 0 10 -12z
m220 -8 c-3 -8 -6 -5 -6 6 -1 11 2 17 5 13 3 -3 4 -12 1 -19z m-2652 2 c-3 -5
2 -10 11 -10 10 0 15 -3 11 -6 -10 -10 -39 5 -32 16 3 5 8 10 11 10 3 0 2 -4
-1 -10z m475 0 c0 -5 -4 -10 -10 -10 -5 0 -10 5 -10 10 0 6 5 10 10 10 6 0 10
-4 10 -10z m40 7 c0 -2 -9 -12 -20 -22 -24 -21 -27 -14 -4 9 15 15 24 20 24
13z m1440 -11 c0 -10 8 -13 25 -10 50 9 56 -23 9 -45 -15 -6 -22 -16 -18 -23
4 -7 3 -8 -4 -4 -14 8 0 40 20 50 7 4 3 4 -10 2 -13 -3 -26 2 -33 12 -8 14 -9
12 -3 -6 10 -39 12 -72 3 -66 -5 3 -9 11 -9 19 0 7 -5 15 -10 17 -7 2 -7 14 1
36 11 33 29 44 29 18z m40 8 c0 -8 -19 -13 -24 -6 -3 5 1 9 9 9 8 0 15 -2 15
-3z m564 -18 c11 -18 13 -27 4 -32 -6 -4 -8 -3 -5 3 4 6 0 16 -8 23 -8 7 -15
16 -15 21 0 15 7 10 24 -15z m-2434 -6 c0 -11 -2 -20 -4 -20 -2 0 -6 9 -9 20
-3 11 -1 20 4 20 5 0 9 -9 9 -20z m1149 17 c-2 -2 -16 -11 -31 -20 -22 -14
-26 -14 -22 -3 3 8 13 17 22 19 22 6 36 8 31 4z m114 -26 c3 -13 1 -18 -9 -14
-7 2 -10 11 -7 19 7 19 10 18 16 -5z m672 9 c3 -5 13 -6 21 -3 13 5 15 1 9
-18 -9 -27 -20 -39 -60 -64 l-30 -19 28 27 c26 25 29 47 6 47 -6 0 -7 -4 -4
-10 3 -5 1 -10 -5 -10 -6 0 -8 -6 -4 -12 5 -10 4 -10 -5 -2 -10 9 -10 17 3 36
9 14 13 28 9 31 -3 4 1 7 10 7 9 0 18 -4 22 -10z m573 -3 c16 4 22 1 22 -11 0
-9 -5 -16 -11 -16 -5 0 -7 4 -4 10 3 6 -1 7 -9 4 -9 -3 -13 -10 -10 -15 14
-23 -6 -6 -22 19 -12 18 -13 23 -3 15 8 -7 25 -10 37 -6z m-818 -5 c0 -4 -9
-8 -20 -9 -11 -1 -18 2 -15 8 7 11 35 12 35 1z m440 -2 c0 -5 -2 -10 -4 -10
-3 0 -8 5 -11 10 -3 6 -1 10 4 10 6 0 11 -4 11 -10z m260 -25 c0 -8 5 -15 11
-15 5 0 7 -4 4 -10 -3 -5 -15 -10 -27 -10 -16 0 -19 5 -16 25 3 14 1 28 -3 31
-5 3 -9 0 -9 -5 0 -6 -5 -11 -11 -11 -8 0 -8 4 1 15 14 17 50 3 50 -20z
m-2513 19 c-3 -3 -12 -4 -19 -1 -8 3 -5 6 6 6 11 1 17 -2 13 -5z m460 -14 c-4
-27 -10 -30 -25 -14 -11 12 -10 14 3 14 8 0 15 5 15 10 0 6 2 10 5 10 3 0 4
-9 2 -20z m63 11 c0 -6 -4 -12 -10 -16 -5 -3 -7 -12 -4 -19 3 -8 2 -16 -3 -19
-7 -4 -10 47 -4 61 3 7 21 1 21 -7z m818 -32 c0 -16 -3 -29 -7 -29 -5 0 -7 11
-6 25 2 16 -2 25 -10 25 -8 0 -16 4 -19 9 -3 4 5 6 18 4 17 -4 23 -12 24 -34z
m827 1 c3 6 11 10 16 10 6 0 7 -4 4 -10 -3 -5 -1 -10 4 -10 6 0 11 5 11 12 0
9 3 9 12 0 8 -8 8 -15 -2 -27 -19 -23 -44 -18 -69 16 -19 26 -25 28 -38 17
-15 -12 -15 -11 -3 9 l14 22 22 -25 c13 -13 26 -20 29 -14z m-2309 12 c-3 -3
-1 -11 5 -19 9 -10 8 -13 -4 -13 -8 0 -18 7 -21 16 -10 25 -7 34 9 27 9 -3 13
-8 11 -11z m72 -9 c1 -25 0 -26 -12 -11 -10 13 -15 15 -24 6 -9 -9 -12 -9 -12
0 0 7 10 17 23 22 12 5 22 9 22 9 0 1 2 -11 3 -26z m1272 19 c0 -13 -12 -22
-22 -16 -10 6 -1 24 13 24 5 0 9 -4 9 -8z m252 1 c-6 -2 -9 -10 -5 -16 4 -6 0
-8 -9 -4 -9 3 -20 2 -24 -1 -5 -4 -1 1 9 11 11 9 24 17 31 16 7 0 6 -2 -2 -6z
m-1463 -25 c0 -13 -3 -17 -6 -10 -2 6 -8 10 -12 8 -4 -3 -8 1 -8 9 0 8 6 15
14 15 7 0 13 -10 12 -22z m1251 -27 c0 -8 -6 -11 -16 -7 -14 5 -15 4 -4 -9 7
-8 20 -15 29 -16 9 0 11 -3 4 -5 -7 -3 -21 -1 -32 5 -16 9 -20 8 -24 -7 -2 -9
-3 -2 -2 16 3 40 24 69 36 50 5 -7 9 -19 9 -27z m-1197 14 c4 -8 2 -17 -3 -20
-6 -4 -10 3 -10 14 0 25 6 27 13 6z m361 -21 c2 -11 -2 -22 -7 -26 -7 -4 -6
-12 3 -22 11 -14 10 -16 -4 -10 -12 5 -16 14 -12 30 3 12 2 25 -4 29 -5 3 -6
13 -3 21 7 18 23 5 27 -22z m766 27 c0 -6 -4 -12 -8 -15 -5 -3 -9 1 -9 9 0 8
4 15 9 15 4 0 8 -4 8 -9z m91 -14 c-10 -9 -11 -8 -5 6 3 10 9 15 12 12 3 -3 0
-11 -7 -18z m149 -9 c0 -5 -9 -3 -20 4 -11 7 -20 16 -20 20 0 5 9 3 20 -4 11
-7 20 -16 20 -20z m66 15 c-3 -19 -36 -32 -36 -14 0 8 25 28 37 31 1 0 0 -8
-1 -17z m204 13 c0 -2 -7 -7 -16 -10 -8 -3 -12 -2 -9 4 6 10 25 14 25 6z m438
-34 c-6 -7 -17 -11 -25 -8 -7 3 -13 1 -13 -5 0 -6 -5 -7 -12 -3 -7 5 -8 3 -2
-7 10 -16 15 -44 7 -35 -3 3 -11 -2 -18 -10 -9 -13 -12 -13 -12 -3 0 8 -2 19
-3 24 -6 25 2 43 24 53 17 7 27 7 35 -1 8 -8 11 -5 11 14 0 18 2 21 10 9 6 -9
5 -19 -2 -28z m-1878 18 c0 -5 -5 -10 -11 -10 -5 0 -8 -4 -5 -8 3 -5 -1 -9 -9
-9 -10 0 -11 5 -4 19 10 19 29 25 29 8z m214 -15 c3 -9 0 -12 -9 -9 -7 3 -16
12 -19 19 -3 9 0 12 9 9 7 -3 16 -12 19 -19z m23 10 c0 -8 -4 -12 -9 -9 -5 3
-6 10 -3 15 9 13 12 11 12 -6z m2154 -8 c-10 -9 -11 -8 -5 6 3 10 9 15 12 12
3 -3 0 -11 -7 -18z m-37 7 c9 -3 13 -10 10 -15 -3 -5 2 -9 11 -9 9 0 13 -4 10
-10 -3 -5 -3 -15 1 -21 4 -8 9 -7 15 2 6 10 9 10 9 2 0 -11 -30 -33 -45 -33
-3 0 -3 11 -1 24 3 15 -3 32 -15 45 -21 22 -20 25 5 15z m-2779 -13 c3 -5 2
-12 -3 -15 -5 -3 -9 1 -9 9 0 17 3 19 12 6z m158 2 c-7 -2 -19 -2 -25 0 -7 3
-2 5 12 5 14 0 19 -2 13 -5z m327 -9 c0 -8 -5 -12 -10 -9 -6 4 -8 11 -5 16 9
14 15 11 15 -7z m2250 -37 c0 -25 -2 -27 -15 -13 -8 8 -12 22 -9 30 3 9 1 16
-5 16 -6 0 -11 5 -11 10 0 6 8 5 20 -2 12 -8 20 -24 20 -41z m50 -5 c0 -2 -8
2 -17 9 -15 13 -16 12 -11 -9 4 -12 3 -20 -2 -17 -4 3 -10 21 -12 40 l-4 35
23 -26 c13 -15 23 -29 23 -32z m-2710 44 c0 -2 -7 -7 -16 -10 -8 -3 -12 -2 -9
4 6 10 25 14 25 6z m400 -36 c0 -3 -6 -7 -13 -7 -7 0 -13 8 -13 18 0 13 3 15
13 7 7 -6 13 -14 13 -18z m147 -2 c-3 -7 -5 -2 -5 12 0 14 2 19 5 13 2 -7 2
-19 0 -25z m732 6 c-14 -18 -24 -11 -15 11 3 9 11 13 16 10 8 -5 7 -11 -1 -21z
m1002 17 c5 8 9 9 9 4 0 -14 -37 -45 -45 -37 -3 3 -8 -4 -12 -16 -5 -19 -8
-20 -21 -10 -12 10 -14 10 -8 1 4 -7 2 -13 -3 -13 -19 0 -12 22 9 27 11 3 20
10 20 15 0 5 -4 7 -9 3 -5 -3 -12 -1 -15 4 -4 5 8 8 26 5 18 -2 27 -1 21 2 -7
3 -13 10 -13 16 0 6 7 5 16 -3 13 -10 17 -10 25 2z m-1931 -7 c0 -8 -19 -13
-24 -6 -3 5 1 9 9 9 8 0 15 -2 15 -3z m1247 -16 c-3 -8 -6 -5 -6 6 -1 11 2 17
5 13 3 -3 4 -12 1 -19z m-1010 -3 c0 -8 -4 -15 -9 -15 -10 0 -11 14 -1 23 9
10 10 9 10 -8z m-307 1 c0 -3 -4 -8 -10 -11 -5 -3 -10 -1 -10 4 0 6 5 11 10
11 6 0 10 -2 10 -4z m995 -13 c9 12 15 14 20 7 5 -8 11 -8 19 -1 20 17 28 -1
9 -21 -16 -18 -16 -18 2 -12 14 6 17 4 12 -9 -4 -11 -2 -14 8 -11 10 4 12 -2
5 -31 -11 -47 -21 -58 -16 -17 2 17 0 30 -4 27 -12 -7 -51 35 -44 48 4 7 3 8
-2 4 -5 -5 -9 -14 -9 -20 -1 -7 -7 -11 -15 -9 -10 3 -9 -2 4 -17 10 -11 21
-20 25 -19 18 2 31 -3 31 -13 0 -5 -4 -7 -10 -4 -16 10 -12 -11 5 -25 17 -14
20 -30 5 -30 -5 0 -10 8 -10 17 0 15 -2 14 -14 -2 -8 -11 -12 -24 -9 -28 3 -5
8 -4 12 1 8 13 25 3 29 -15 1 -7 -5 -13 -13 -13 -8 0 -15 -4 -15 -9 0 -5 -10
-7 -22 -4 l-23 5 23 -16 c17 -13 20 -21 13 -35 -7 -12 -6 -22 2 -30 9 -9 6
-11 -13 -9 -24 3 -49 24 -50 42 0 5 8 2 18 -7 16 -15 18 -15 19 3 1 12 -3 17
-12 13 -9 -3 -19 5 -27 21 -6 15 -14 23 -17 19 -3 -4 -16 -14 -28 -21 -19 -10
-23 -10 -23 3 0 8 9 15 19 15 10 0 22 7 25 16 5 14 4 15 -9 4 -20 -16 -29 -7
-17 17 5 10 9 30 8 44 -1 18 3 26 13 25 9 -1 16 5 17 12 1 6 2 18 3 25 1 8 4
7 11 -3 5 -8 10 -10 10 -4 0 5 -6 16 -12 23 -9 10 -9 12 -1 7 6 -3 14 -2 18 4
3 5 -1 10 -11 10 -13 0 -14 3 -5 13 6 8 10 16 8 18 -1 2 4 -3 11 -11 12 -13
15 -13 27 3z m100 8 c3 -5 2 -12 -3 -15 -5 -3 -9 1 -9 9 0 17 3 19 12 6z
m1199 0 c3 -5 -1 -11 -9 -14 -9 -4 -12 -1 -8 9 6 16 10 17 17 5z m-2373 -23
c11 -21 11 -22 -4 -9 -10 7 -17 17 -17 22 0 15 9 10 21 -13z m1425 -3 c1 -8
-2 -13 -7 -9 -5 3 -9 -4 -9 -15 0 -12 0 -24 -1 -28 0 -4 5 -9 12 -12 6 -2 9 1
5 7 -9 15 17 21 31 7 9 -10 8 -14 -5 -18 -9 -3 -25 -8 -34 -12 -13 -5 -18 -2
-18 9 0 10 -6 14 -17 10 -17 -5 -17 -5 0 6 9 6 17 19 17 30 0 42 21 62 26 25z
m683 4 c-22 -13 -31 -11 -17 5 7 8 17 12 22 9 4 -3 2 -9 -5 -14z m-1926 -3 c3
3 4 -12 4 -34 -2 -27 -6 -38 -14 -35 -7 3 -13 1 -13 -5 0 -6 6 -12 13 -15 9
-3 9 -7 -2 -20 -7 -9 -17 -15 -21 -12 -11 7 -33 -42 -25 -56 5 -8 4 -10 -3 -5
-7 4 -12 16 -12 26 0 22 28 53 41 45 5 -4 9 -1 9 4 0 6 -6 11 -12 11 -7 0 -13
11 -13 24 0 14 5 22 12 19 6 -3 16 5 23 16 10 19 7 25 -12 23 -3 -1 -9 5 -12
14 -4 11 -2 12 13 5 10 -6 21 -8 24 -5z m137 -1 c6 -3 10 -12 9 -18 0 -9 -2
-9 -6 1 -7 19 -19 14 -19 -8 0 -13 5 -19 13 -16 7 3 13 1 13 -3 0 -18 -12 -41
-22 -41 -5 0 -6 5 -3 11 4 6 1 10 -6 8 -8 -1 -21 -1 -29 0 -12 1 -12 4 3 12
20 12 22 40 5 57 -9 9 -6 11 10 7 12 -2 27 -7 32 -10z m1205 -3 c-3 -3 -11 0
-18 7 -9 10 -8 11 6 5 10 -3 15 -9 12 -12z m681 -4 c4 -6 3 -8 -4 -4 -6 3 -13
2 -17 -3 -3 -6 4 -15 15 -21 11 -6 18 -16 14 -22 -4 -7 -9 -6 -14 2 -4 6 -11
11 -16 11 -12 -1 -12 21 -1 37 12 15 14 15 23 0z m-2076 -8 c-8 -5 -11 -10 -6
-10 5 0 -2 -9 -15 -21 -13 -12 -22 -26 -21 -33 2 -6 0 -8 -3 -4 -4 4 -17 3
-29 -3 -13 -6 -11 -2 7 12 22 17 25 24 16 35 -8 10 -8 14 0 14 6 0 11 -5 11
-11 0 -5 5 -7 10 -4 7 5 8 11 1 19 -7 8 -3 12 17 14 21 1 24 0 12 -8z m1937
-12 c-3 -8 -6 -5 -6 6 -1 11 2 17 5 13 3 -3 4 -12 1 -19z m-2018 -14 c-15 -18
-22 -13 -13 10 3 9 10 13 16 10 5 -3 4 -12 -3 -20z m2191 11 c7 -9 8 -15 2
-15 -5 0 -12 7 -16 15 -3 8 -4 15 -2 15 2 0 9 -7 16 -15z m-1884 -23 c-17 -16
-18 -16 -5 5 7 12 15 20 18 17 3 -2 -3 -12 -13 -22z m1641 11 c0 -9 -4 -10
-14 -2 -7 6 -13 12 -13 14 0 1 6 2 13 2 8 0 14 -6 14 -14z m283 -3 c0 -5 -2
-10 -4 -10 -3 0 -8 5 -11 10 -3 6 -1 10 4 10 6 0 11 -4 11 -10z m-195 -28 c-3
-3 -11 0 -18 7 -9 10 -8 11 6 5 10 -3 15 -9 12 -12z m95 8 c11 -7 11 -10 2
-10 -7 0 -10 -5 -7 -10 4 -6 11 -8 16 -5 5 4 9 1 9 -4 0 -13 -10 -14 -29 -2
-7 5 -11 13 -7 19 3 6 0 13 -6 15 -7 3 -8 6 -3 6 6 0 17 -4 25 -9z m-632 -31
c-2 -6 -7 -10 -11 -10 -4 1 -14 1 -23 1 -13 0 -14 3 -5 13 6 8 7 17 3 22 -4 4
3 2 16 -4 13 -7 22 -17 20 -22z m456 23 c2 -4 1 -14 -3 -21 -6 -9 -10 -7 -14
8 -5 20 7 29 17 13z m-612 -26 c3 -15 1 -23 -6 -20 -12 5 -16 44 -5 44 4 0 9
-11 11 -24z m-1349 -7 c17 -16 18 -19 5 -15 -10 3 -25 8 -34 11 -8 3 -12 9 -9
15 9 14 13 13 38 -11z m260 -21 c3 -11 0 -18 -10 -18 -8 0 -12 4 -9 9 3 4 -2
17 -10 27 -15 19 -15 19 -10 0 6 -16 4 -17 -9 -6 -12 10 -13 15 -4 21 16 9 46
-10 52 -33z m-519 11 c7 6 15 4 23 -4 17 -18 -14 -32 -56 -26 -5 0 -8 12 -8
25 0 22 1 23 14 10 10 -9 19 -11 27 -5z m86 11 c0 -5 -5 -10 -11 -10 -5 0 -7
5 -4 10 3 6 8 10 11 10 2 0 4 -4 4 -10z m70 0 c0 -5 -2 -10 -4 -10 -3 0 -8 5
-11 10 -3 6 -1 10 4 10 6 0 11 -4 11 -10z m140 0 c0 -5 -2 -10 -4 -10 -3 0 -8
5 -11 10 -3 6 -1 10 4 10 6 0 11 -4 11 -10z m1271 3 c-11 -5 -11 -7 0 -14 11
-7 10 -9 -3 -9 -18 0 -23 11 -11 23 3 4 11 7 17 6 6 0 5 -3 -3 -6z m-1013 -25
c7 -13 13 -43 14 -68 2 -27 9 -47 17 -51 8 -3 15 -13 17 -22 1 -10 -1 -15 -6
-12 -11 7 -21 -22 -14 -40 4 -8 11 -12 18 -8 7 4 7 1 -1 -9 -7 -8 -9 -19 -5
-23 4 -5 3 -6 -3 -3 -12 7 -37 -17 -28 -26 10 -10 25 -7 18 4 -3 6 -2 10 4 10
5 0 9 -9 8 -20 -1 -10 -3 -17 -5 -15 -3 2 -11 -3 -19 -11 -19 -18 -9 -32 10
-15 12 9 13 7 9 -14 -3 -18 -8 -23 -16 -16 -12 10 -16 -2 -19 -56 -1 -14 -7
-20 -17 -18 -13 3 -16 -2 -11 -23 3 -19 6 -22 9 -9 2 9 10 17 18 17 11 0 10
-4 -3 -20 -13 -14 -20 -17 -30 -8 -18 14 -18 -23 0 -41 10 -10 9 -12 -3 -9
-15 3 -15 -1 -3 -44 3 -11 0 -18 -8 -18 -12 0 -12 -2 0 -9 8 -5 10 -14 6 -21
-6 -9 -12 -5 -22 15 -11 20 -18 24 -26 16 -6 -6 -15 -11 -19 -11 -11 0 -10 38
2 45 5 3 6 13 3 23 -4 10 2 7 15 -8 18 -21 21 -22 22 -7 0 10 -5 27 -11 38 -8
16 -7 23 4 32 21 17 30 60 11 53 -8 -3 -14 1 -14 8 0 8 -8 13 -17 12 -25 -2
-30 44 -7 61 17 12 17 13 -2 13 -16 0 -17 2 -4 10 10 6 11 10 3 10 -7 0 -13 5
-13 12 0 6 7 4 18 -5 10 -10 21 -15 23 -12 3 2 5 -5 5 -15 0 -12 -7 -20 -16
-20 -10 0 -16 -10 -18 -26 -2 -22 0 -25 13 -14 10 9 15 9 15 1 0 -19 29 -12
40 9 13 24 7 76 -8 73 -6 -2 -2 13 9 32 12 19 25 35 31 35 5 0 6 5 2 11 -4 8
-9 7 -15 -2 -6 -10 -13 -10 -33 -1 -19 8 -26 8 -30 -1 -3 -8 -5 -6 -5 3 -1 9
16 23 38 32 29 13 39 23 38 38 -1 11 -5 20 -10 20 -4 0 -5 5 -2 10 4 7 -3 9
-22 5 -25 -5 -25 -5 6 10 19 8 31 18 28 21 -4 4 -1 16 4 27 8 15 8 22 -2 28
-8 5 -10 9 -5 9 5 0 3 7 -4 15 -7 8 -8 15 -3 15 5 0 15 -10 21 -22z m1282 18
c0 -3 -4 -8 -10 -11 -5 -3 -10 -1 -10 4 0 6 5 11 10 11 6 0 10 -2 10 -4z m410
-6 c0 -5 -2 -10 -4 -10 -3 0 -8 5 -11 10 -3 6 -1 10 4 10 6 0 11 -4 11 -10z
m103 -5 c-3 -9 -8 -13 -11 -11 -3 3 -12 0 -21 -6 -10 -8 -9 -4 3 10 22 25 38
29 29 7z m-403 -5 c0 -5 -4 -10 -10 -10 -5 0 -10 5 -10 10 0 6 5 10 10 10 6 0
10 -4 10 -10z m454 2 c3 -5 -1 -9 -9 -9 -8 0 -15 4 -15 9 0 4 4 8 9 8 6 0 12
-4 15 -8z m147 -5 c-1 -4 -1 -14 -1 -22 0 -8 -3 -14 -7 -13 -5 1 -19 -3 -33
-10 -24 -13 -24 -12 2 8 17 13 25 27 21 37 -4 10 -2 14 6 12 7 -3 12 -8 12
-12z m-2306 -6 c3 -5 1 -12 -4 -15 -5 -3 -11 1 -15 9 -6 16 9 21 19 6z m1675
-31 c-9 -5 -19 -5 -26 1 -6 5 -20 6 -30 2 -16 -6 -17 -5 -4 9 11 11 19 13 28
6 12 -10 16 -4 13 17 -1 6 6 2 16 -8 15 -15 16 -19 3 -27z m260 31 c0 -5 -7
-11 -14 -14 -10 -4 -13 -1 -9 9 6 15 23 19 23 5z m-2010 -8 c0 -12 -98 -14
-105 -3 -4 6 15 10 49 10 31 0 56 -3 56 -7z m107 -31 c2 -23 1 -24 -7 -7 -5
12 -9 14 -9 6 -1 -8 -4 -11 -7 -8 -4 4 -2 13 4 20 7 8 10 17 7 20 -3 4 -2 5 2
2 4 -3 8 -18 10 -33z m2023 28 c0 -5 -5 -10 -11 -10 -5 0 -7 5 -4 10 3 6 8 10
11 10 2 0 4 -4 4 -10z m-1790 -15 c0 -12 -19 -12 -23 0 -4 9 -1 12 9 8 7 -3
14 -7 14 -8z m-286 -11 c3 -8 2 -12 -4 -9 -6 3 -10 10 -10 16 0 14 7 11 14 -7z
m1350 -14 c3 0 6 8 6 18 0 14 2 14 9 3 5 -8 16 -11 25 -8 9 4 16 2 16 -4 0 -6
6 -7 13 -3 6 4 9 4 5 -1 -8 -8 -48 -14 -96 -15 -13 0 -20 -5 -17 -10 3 -6 1
-10 -4 -10 -16 0 -13 20 3 26 8 3 12 13 10 22 -5 15 -4 15 9 0 8 -10 17 -18
21 -18z m246 15 c0 -10 -9 -14 -24 -13 -14 1 -22 6 -20 10 3 5 9 6 14 3 5 -3
11 -1 15 5 9 14 15 12 15 -5z m-1438 -21 c-9 -12 -19 -20 -21 -18 -2 2 1 10 7
17 7 8 10 16 7 19 -3 2 1 5 9 5 12 0 11 -5 -2 -23z m1373 17 c-9 -8 -36 -10
-30 -2 2 4 11 8 20 8 8 0 13 -3 10 -6z m416 -5 c-8 -10 -9 -16 -1 -19 6 -3 6
-5 -1 -3 -18 3 -20 36 -2 36 12 0 13 -3 4 -14z m155 -43 c1 -6 -4 -9 -11 -6
-8 2 -11 12 -8 21 5 14 3 15 -8 5 -16 -16 -29 -17 -29 -2 0 5 4 8 9 4 5 -3 12
-1 16 5 3 5 1 10 -5 10 -6 0 -8 5 -5 11 7 11 38 -25 41 -48z m-2376 37 c0 -5
-2 -10 -4 -10 -3 0 -8 5 -11 10 -3 6 -1 10 4 10 6 0 11 -4 11 -10z m2527 4
c-3 -3 -12 -4 -19 -1 -8 3 -5 6 6 6 11 1 17 -2 13 -5z m73 -4 c0 -5 -5 -10
-11 -10 -5 0 -7 5 -4 10 3 6 8 10 11 10 2 0 4 -4 4 -10z m-2228 -22 c-7 -7
-12 -8 -12 -2 0 6 3 14 7 17 3 4 9 5 12 2 2 -3 -1 -11 -7 -17z m182 8 c-3 -8
-12 -12 -21 -9 -12 5 -12 7 -1 14 20 13 28 11 22 -5z m1332 -11 c-10 -7 -15
-18 -12 -24 4 -5 2 -13 -4 -16 -6 -4 -10 -3 -9 2 3 20 -2 34 -11 28 -6 -3 -7
1 -4 9 4 9 18 16 33 16 24 -1 25 -1 7 -15z m-1591 -15 c3 0 3 5 -1 12 -4 7 -3
8 5 4 14 -9 5 -26 -13 -26 -8 0 -20 7 -27 17 -13 15 -12 15 8 5 12 -7 24 -12
28 -12z m165 1 c0 -4 -11 -8 -25 -9 -21 -1 -23 1 -13 12 12 13 38 11 38 -3z
m833 -7 c-3 -7 -13 -14 -24 -14 -10 0 -19 -3 -19 -7 0 -4 14 -7 30 -7 17 1 30
-3 30 -9 0 -5 -9 -7 -20 -4 -10 3 -24 -1 -31 -9 -6 -8 -16 -14 -21 -14 -6 0
-6 6 1 14 8 10 9 16 1 21 -14 9 -13 36 3 33 6 -2 11 2 10 8 -1 7 8 9 22 6 15
-2 22 -9 18 -18z m337 5 c0 -4 -7 -6 -15 -3 -8 4 -15 10 -15 15 0 4 7 6 15 3
8 -4 15 -10 15 -15z m56 -4 c1 -8 -2 -13 -7 -9 -5 3 -9 0 -9 -6 0 -6 -4 -8
-10 -5 -18 11 -11 -3 15 -31 13 -14 22 -30 20 -35 -3 -4 4 -10 15 -14 11 -3
20 -14 21 -23 0 -9 1 -32 2 -51 2 -25 -3 -35 -15 -39 -10 -2 -15 -9 -11 -14 3
-6 0 -9 -8 -6 -17 6 -19 33 -2 33 6 0 15 4 20 9 4 5 3 6 -3 3 -6 -4 -16 5 -23
19 -6 14 -16 22 -22 18 -8 -4 -8 -9 0 -17 19 -19 12 -27 -14 -15 -21 9 -28 8
-45 -7 -11 -10 -17 -23 -13 -29 3 -6 0 -6 -7 1 -9 8 -18 9 -25 3 -8 -7 -18 -3
-30 10 -17 18 -17 20 -2 14 9 -3 17 -11 17 -18 0 -6 4 -5 9 4 6 8 7 18 4 23
-3 4 3 15 13 23 18 14 18 15 -3 9 -14 -4 -23 -2 -23 5 0 6 5 8 10 5 6 -3 10 2
10 12 1 17 1 17 11 0 7 -12 17 -16 30 -12 14 5 17 3 13 -9 -4 -11 0 -16 11
-16 10 0 13 5 9 12 -4 6 -3 8 4 4 6 -3 13 -2 17 4 3 5 0 10 -7 10 -7 0 -30 9
-49 19 -24 13 -40 16 -46 10 -7 -7 -12 -3 -16 10 -3 12 -2 19 3 16 4 -3 10 2
14 10 3 8 1 15 -4 15 -6 0 -10 5 -10 11 0 5 4 8 9 5 4 -3 7 6 5 19 -3 28 3 31
25 11 14 -11 21 -11 49 0 17 8 32 19 32 26 0 15 13 1 16 -17z m506 3 c-7 -7
-12 -8 -12 -2 0 14 12 26 19 19 2 -3 -1 -11 -7 -17z m268 -9 c0 -5 -5 -9 -12
-9 -6 0 -8 3 -5 7 4 3 1 13 -6 22 -11 14 -10 14 6 2 9 -7 17 -17 17 -22z m34
23 c3 -5 -1 -9 -9 -9 -8 0 -12 4 -9 9 3 4 7 8 9 8 2 0 6 -4 9 -8z m-319 -42
c-4 -6 -10 -8 -15 -5 -10 6 -25 -34 -16 -42 3 -4 6 0 6 7 0 9 5 7 14 -5 30
-42 -6 -40 -51 1 -14 13 -29 21 -34 19 -4 -3 -10 -1 -13 4 -3 5 3 11 14 14 11
3 20 1 20 -4 0 -4 7 -6 15 -3 8 4 12 11 8 17 -3 6 -1 7 5 3 6 -4 17 2 24 13
10 17 14 18 21 6 4 -8 5 -20 2 -25z m50 31 c-3 -6 4 -15 15 -21 11 -6 20 -16
19 -23 -4 -34 2 -57 16 -57 8 0 14 -4 13 -9 -2 -5 6 -16 17 -25 17 -12 18 -17
6 -28 -8 -7 -11 -8 -8 -2 6 10 -30 48 -45 49 -4 0 -17 8 -28 18 -12 10 -25 15
-30 12 -5 -3 -12 0 -16 6 -4 7 -3 9 4 5 6 -3 13 -2 17 4 6 9 -8 15 -29 11 -5
-1 -3 6 4 16 22 28 24 29 17 11 -4 -10 -2 -18 4 -18 15 0 39 -26 32 -34 -4 -3
-1 -6 5 -6 15 0 15 6 2 31 -8 14 -7 19 2 19 9 0 9 3 -2 10 -9 6 -17 5 -21 -2
-4 -5 -6 2 -6 16 0 14 4 26 9 26 5 0 7 -4 3 -9z m-1977 -42 c-1 -31 -15 -34
-31 -7 -13 20 -2 49 17 42 9 -3 14 -18 14 -35z m-128 27 c0 -3 -4 -8 -10 -11
-5 -3 -10 -1 -10 4 0 6 5 11 10 11 6 0 10 -2 10 -4z m212 -14 c-14 -2 -22 -9
-19 -16 3 -7 1 -19 -4 -27 -7 -12 -9 -12 -10 1 -1 8 -2 22 -3 30 -1 16 33 31
49 21 6 -3 0 -7 -13 -9z m68 14 c0 -3 -4 -8 -10 -11 -5 -3 -10 -1 -10 4 0 6 5
11 10 11 6 0 10 -2 10 -4z m1388 -11 c-4 -11 -28 -16 -28 -6 0 12 13 22 23 18
5 -1 7 -7 5 -12z m634 -2 c-6 -3 -9 -10 -6 -15 4 -7 2 -8 -5 -4 -9 6 -9 11 0
22 6 8 15 12 18 8 3 -4 0 -9 -7 -11z m-2145 -26 c-1 -28 -5 -33 -27 -34 -24
-2 -24 -1 -4 8 15 8 20 17 16 35 -2 13 0 24 6 24 5 0 9 -15 9 -33z m307 2 c-8
-14 -40 -10 -54 6 -11 14 -10 14 14 5 37 -14 41 -13 25 8 -13 15 -12 16 3 3
10 -7 15 -17 12 -22z m1792 6 c0 -26 -11 -33 -19 -12 -4 9 -8 8 -16 -3 -12
-17 -14 -10 -5 14 3 9 10 14 14 11 5 -3 11 -1 15 5 9 15 11 13 11 -15z m296
11 c14 -21 8 -30 -8 -10 -8 10 -13 14 -10 9 2 -6 1 -17 -3 -24 -6 -9 -10 -6
-13 11 -3 18 0 25 11 25 9 0 19 -5 23 -11z m-212 -6 c0 -5 -4 -10 -10 -10 -5
0 -10 5 -10 10 0 6 5 10 10 10 6 0 10 -4 10 -10z m86 -2 c3 -4 -1 -5 -10 -4
-8 1 -18 5 -22 8 -3 4 1 5 10 4 8 -1 18 -5 22 -8z m-2392 -6 c2 -4 -7 -8 -22
-9 -24 -2 -24 -1 -7 7 11 5 21 9 22 9 1 1 4 -3 7 -7z m240 -8 c5 -14 4 -15 -9
-4 -13 11 -15 9 -15 -14 0 -20 -5 -26 -22 -26 -21 1 -22 2 -6 14 10 7 15 16
12 19 -9 9 5 27 21 27 7 0 16 -7 19 -16z m56 6 c0 -5 -6 -9 -12 -7 -7 1 -12
-6 -10 -15 3 -21 -10 -29 -28 -17 -13 7 -12 9 3 9 9 0 16 3 16 8 -3 20 2 32
16 32 8 0 15 -4 15 -10z m1830 0 c0 -5 -5 -10 -11 -10 -5 0 -7 5 -4 10 3 6 8
10 11 10 2 0 4 -4 4 -10z m555 -4 c24 10 23 -11 -1 -23 -14 -6 -26 -7 -30 -2
-3 5 0 9 7 9 8 0 8 5 -2 18 -11 14 -11 15 0 5 7 -6 19 -9 26 -7z m-1480 -6 c3
-5 2 -10 -4 -10 -5 0 -13 5 -16 10 -3 6 -2 10 4 10 5 0 13 -4 16 -10z m1058
-28 c8 -10 13 -10 26 0 13 10 14 10 4 -1 -6 -7 -9 -21 -6 -30 3 -9 -2 -7 -11
6 -13 18 -21 21 -41 13 l-23 -9 16 29 c9 16 19 24 21 17 2 -6 8 -18 14 -25z
m-2202 14 c5 3 9 0 9 -6 0 -7 -7 -10 -15 -6 -8 3 -15 1 -15 -4 0 -6 -5 -10
-10 -10 -6 0 -5 8 2 20 7 11 14 16 16 10 2 -6 8 -8 13 -4z m1113 -1 c3 -9 12
-12 22 -8 12 4 15 3 10 -5 -9 -15 -36 -16 -36 -2 0 6 -7 10 -16 10 -14 0 -14
-2 0 -15 8 -8 22 -15 30 -15 18 0 21 -16 5 -25 -6 -4 -8 -13 -5 -20 2 -7 2
-16 -2 -20 -4 -4 -8 -11 -8 -16 -1 -5 -2 -13 -3 -17 0 -5 -11 -8 -22 -8 -23 1
-46 -39 -29 -49 6 -4 10 1 10 9 0 9 7 16 15 16 9 0 15 -9 15 -22 0 -19 -2 -20
-11 -8 -8 12 -9 9 -5 -12 6 -28 1 -32 -36 -29 -10 1 -18 -3 -18 -8 0 -11 15
-15 35 -11 5 1 1 -8 -9 -19 -18 -20 -18 -21 -1 -21 14 0 15 -3 5 -15 -7 -8 -9
-23 -6 -32 5 -15 4 -15 -9 1 -15 19 -15 19 -15 -4 0 -25 -10 -22 -14 3 -1 8
-8 23 -16 33 -9 11 -10 15 -2 10 6 -4 12 -2 12 4 0 6 10 15 23 20 l22 9 -22 0
c-16 1 -21 6 -17 16 4 8 1 15 -6 15 -6 0 -8 5 -5 11 4 6 13 8 20 5 17 -6 28
21 12 28 -9 3 -8 7 3 15 12 8 11 13 -8 34 -22 24 -30 57 -13 57 13 0 23 -17
14 -23 -5 -2 -3 -3 4 -1 18 4 24 -8 10 -25 -10 -14 -10 -14 4 -3 9 7 19 23 21
36 4 19 1 22 -17 18 -12 -2 -27 3 -34 12 -11 13 -8 15 24 11 24 -4 34 -2 29 6
-3 6 -14 9 -24 6 -10 -2 -24 0 -31 5 -11 8 -10 9 4 4 9 -3 17 -1 17 5 0 5 12
7 28 4 15 -3 21 -2 12 2 -8 5 -16 16 -16 26 -2 22 41 24 50 2z m1106 5 c0 -5
-4 -10 -10 -10 -5 0 -10 5 -10 10 0 6 5 10 10 10 6 0 10 -4 10 -10z m257 -4
c-11 -9 -14 -16 -7 -19 6 -3 6 -5 -2 -3 -20 4 -21 24 -1 29 29 7 29 7 10 -7z
m-152 -6 c3 -5 1 -10 -4 -10 -6 0 -11 5 -11 10 0 6 2 10 4 10 3 0 8 -4 11 -10z
m-2475 -39 c0 -14 -2 -14 -10 -1 -6 9 -10 11 -10 3 0 -7 -7 -10 -15 -7 -23 9
-18 19 10 20 17 1 25 -3 25 -15z m195 -1 c-4 -12 -2 -20 5 -20 6 0 8 5 5 10
-3 6 -1 10 5 10 8 0 10 -9 6 -25 -4 -15 -2 -25 5 -25 15 0 -10 -24 -41 -39
-22 -11 -23 -10 -8 2 23 18 12 30 -15 16 -14 -8 -18 -8 -13 0 4 6 0 11 -10 11
-14 0 -15 2 -3 17 12 14 12 16 0 8 -10 -5 -12 -4 -7 3 4 7 1 12 -9 12 -9 0
-14 4 -11 9 4 5 0 12 -6 14 -8 3 -8 6 -2 6 17 1 54 -35 54 -53 0 -21 16 -21
24 0 8 21 8 26 -2 20 -5 -3 -9 1 -9 9 0 8 4 12 9 9 4 -3 8 2 8 10 0 9 5 16 11
16 6 0 8 -9 4 -20z m2364 13 c8 8 14 8 24 -2 9 -11 9 -12 0 -7 -7 4 -24 -1
-38 -10 -20 -13 -30 -14 -48 -6 -20 10 -19 11 8 6 29 -6 29 -6 10 10 -19 16
-19 16 6 7 18 -7 30 -6 38 2z m-2619 -17 c0 -7 -8 -20 -17 -27 -16 -13 -17
-12 -5 3 8 9 11 22 7 28 -3 5 -1 10 4 10 6 0 11 -6 11 -14z m423 -13 c-3 -46
-14 -71 -34 -76 -10 -3 -19 -1 -19 3 0 4 -8 7 -17 5 -10 -1 -12 0 -5 2 7 3 10
15 8 30 -4 21 -2 24 15 20 15 -4 19 -2 15 9 -7 17 10 19 18 2 4 -7 4 -3 2 10
-2 12 1 22 7 22 7 0 11 -12 10 -27z m1812 5 c0 -6 6 -13 14 -16 9 -3 11 0 6 8
-5 9 -4 11 4 6 6 -4 8 -12 5 -18 -5 -7 -1 -9 9 -5 11 4 14 2 11 -8 -5 -11 -10
-12 -27 -2 -28 15 -47 39 -40 50 6 10 18 0 18 -15z m485 -11 c0 -4 -6 -2 -14
5 -8 7 -12 17 -9 22 5 8 23 -12 23 -27z m-250 3 c-24 -15 -36 -11 -14 4 10 8
21 12 24 10 2 -3 -2 -9 -10 -14z m-1970 -5 c0 -2 -6 -5 -13 -8 -8 -3 -14 1
-14 8 0 7 6 11 14 8 7 -3 13 -6 13 -8z m45 5 c-26 -11 -35 -12 -35 -2 0 4 12
8 28 9 23 1 24 1 7 -7z m2115 6 c0 -3 -4 -8 -10 -11 -5 -3 -10 -1 -10 4 0 6 5
11 10 11 6 0 10 -2 10 -4z m-2560 -16 c0 -5 -2 -10 -4 -10 -3 0 -8 5 -11 10
-3 6 -1 10 4 10 6 0 11 -4 11 -10z m2087 -8 c-9 -2 -15 -8 -12 -13 4 -5 1 -9
-4 -9 -12 0 -15 23 -5 33 3 3 13 3 22 -1 15 -6 15 -7 -1 -10z m328 8 c-9 -15
14 -40 35 -40 11 0 17 -6 16 -17 -3 -20 -22 -28 -31 -14 -3 6 0 11 7 11 7 0 0
8 -17 19 -18 11 -34 15 -41 10 -6 -5 -14 -6 -18 -2 -4 4 -4 0 0 -10 3 -9 2
-17 -2 -18 -5 0 -16 -2 -25 -4 -9 -1 -16 3 -16 11 0 7 4 11 9 8 5 -4 12 4 15
15 4 15 11 20 23 16 9 -3 23 1 30 10 14 17 25 20 15 5z m92 -12 c-3 -8 -6 -5
-6 6 -1 11 2 17 5 13 3 -3 4 -12 1 -19z m93 1 c0 -6 -4 -7 -10 -4 -5 3 -10 11
-10 16 0 6 5 7 10 4 6 -3 10 -11 10 -16z m-2360 5 c0 -8 -19 -13 -24 -6 -3 5
1 9 9 9 8 0 15 -2 15 -3z m220 -4 c0 -5 -8 -10 -17 -10 -15 0 -16 2 -3 10 19
12 20 12 20 0z m980 -6 c0 -8 -4 -12 -10 -9 -5 3 -10 10 -10 16 0 5 5 9 10 9
6 0 10 -7 10 -16z m-1396 -3 c3 -5 -1 -14 -8 -20 -12 -10 -13 -8 -9 8 6 23 9
25 17 12z m2057 -20 c-6 -10 -7 -21 -4 -25 3 -3 4 -6 1 -6 -3 0 -12 8 -19 17
-10 11 -10 14 -1 9 7 -4 12 -1 12 8 0 9 5 16 10 16 7 0 7 -6 1 -19z m49 10 c0
-6 -4 -13 -10 -16 -5 -3 -10 1 -10 9 0 9 5 16 10 16 6 0 10 -4 10 -9z m106 -6
c-1 -8 -8 -21 -16 -28 -10 -10 -11 -9 -4 3 5 8 9 18 10 23 3 14 4 17 8 17 2 0
3 -7 2 -15z m354 -15 c0 -4 -7 -11 -16 -14 -13 -5 -14 -4 -6 7 7 8 8 18 4 22
-4 5 -1 5 6 1 6 -4 12 -11 12 -16z m-2665 1 c3 -5 2 -12 -3 -15 -5 -3 -9 1 -9
9 0 17 3 19 12 6z m2565 5 c0 -3 -4 -8 -10 -11 -5 -3 -10 -1 -10 4 0 6 5 11
10 11 6 0 10 -2 10 -4z m-2461 -47 c-7 -13 -3 -22 19 -39 19 -15 21 -18 5 -11
-29 15 -33 14 -33 -6 0 -15 -2 -16 -9 -3 -6 8 -8 17 -5 21 2 4 -3 12 -11 19
-8 7 -15 17 -15 23 0 6 6 2 14 -8 13 -18 14 -17 21 14 5 23 10 30 15 20 5 -7
4 -21 -1 -30z m2346 31 c3 -5 1 -10 -4 -10 -6 0 -11 5 -11 10 0 6 2 10 4 10 3
0 8 -4 11 -10z m-2170 -9 c3 -5 2 -12 -3 -15 -5 -3 -9 1 -9 9 0 17 3 19 12 6z
m244 -3 c0 -7 -4 -22 -9 -33 -7 -17 -9 -17 -9 -3 -1 12 -6 15 -18 11 -14 -5
-13 -3 3 14 22 25 34 28 33 11z m2101 7 c0 -2 -7 -8 -15 -15 -12 -10 -15 -10
-15 2 0 8 7 15 15 15 8 0 15 -1 15 -2z m-2483 -42 c-11 -10 -26 8 -20 23 5 15
7 14 15 -1 6 -9 7 -19 5 -22z m200 29 c21 17 25 4 10 -30 -9 -23 -16 -29 -24
-21 -7 7 -9 3 -5 -16 4 -24 2 -26 -19 -23 -13 2 -30 -4 -37 -12 -10 -13 -11
-12 -5 4 5 14 3 17 -7 11 -8 -5 -11 -4 -6 3 3 5 20 8 36 6 17 -3 30 -1 30 5 0
6 -8 11 -17 12 -11 0 -13 3 -5 6 6 2 10 9 6 14 -3 5 0 9 6 9 6 0 8 5 5 10 -4
6 -12 7 -18 3 -7 -4 -6 1 2 11 10 11 17 14 24 7 7 -7 15 -7 24 1z m341 -17
c-3 -3 -9 2 -12 12 -6 14 -5 15 5 6 7 -7 10 -15 7 -18z m806 17 c2 -4 -5 -9
-17 -9 -17 -2 -19 0 -7 7 18 12 18 12 24 2z m951 -20 c-2 -2 -10 0 -17 4 -7 5
-22 8 -33 6 l-20 -2 20 9 c18 7 60 -7 50 -17z m-2425 3 c0 -8 -2 -15 -4 -15
-2 0 -6 7 -10 15 -3 8 -1 15 4 15 6 0 10 -7 10 -15z m1497 -10 c0 -8 -4 -15
-9 -15 -10 0 -11 14 -1 23 9 10 10 9 10 -8z m63 5 c8 -5 11 -10 5 -11 -5 0
-21 -2 -35 -4 -14 -2 -19 -1 -12 1 6 3 10 10 6 15 -7 12 17 11 36 -1z m1015 1
c3 -5 2 -12 -3 -15 -5 -3 -9 1 -9 9 0 17 3 19 12 6z m-170 -11 c3 -5 1 -10 -4
-10 -6 0 -11 5 -11 10 0 6 2 10 4 10 3 0 8 -4 11 -10z m379 1 c4 -5 -3 -7 -14
-4 -23 6 -26 13 -6 13 8 0 17 -4 20 -9z m-2629 -20 c-3 -16 1 -19 23 -15 21 3
23 2 12 -6 -13 -8 -8 -14 12 -12 12 2 30 -27 23 -38 -10 -16 -28 -12 -21 5 3
8 0 16 -7 17 -7 0 -16 2 -22 2 -21 3 -36 19 -31 32 3 8 0 14 -7 14 -8 0 -6 4
3 10 20 13 19 13 15 -9z m2095 15 c0 -3 -4 -8 -10 -11 -5 -3 -10 -1 -10 4 0 6
5 11 10 11 6 0 10 -2 10 -4z m252 -32 c-9 -16 -10 -14 -9 8 1 15 6 23 11 18 4
-4 4 -16 -2 -26z m-1049 12 c6 -15 -1 -26 -15 -26 -4 0 -8 9 -8 20 0 23 15 27
23 6z m55 -14 c19 19 13 -5 -7 -32 -16 -20 -22 -22 -34 -12 -12 10 -16 9 -21
-4 -3 -9 -4 -20 0 -25 3 -5 -4 -9 -16 -9 -12 0 -18 -4 -15 -10 3 -5 1 -10 -4
-10 -16 0 -13 14 9 40 11 12 17 27 13 33 -3 6 -1 7 5 3 7 -4 12 -2 12 4 0 6 5
8 11 4 9 -5 10 1 5 22 l-8 29 20 -22 c14 -17 22 -19 30 -11z m959 22 c-3 -3
-12 -4 -19 -1 -8 3 -5 6 6 6 11 1 17 -2 13 -5z m-2067 -20 c0 -8 -19 -13 -24
-6 -3 5 1 9 9 9 8 0 15 -2 15 -3z m2183 -15 c-3 -11 2 -19 14 -22 15 -4 15 -5
-3 -6 -15 -1 -23 6 -26 22 -3 14 0 24 7 24 7 0 10 -8 8 -18z m41 6 c3 -8 1
-15 -4 -15 -6 0 -10 7 -10 15 0 8 2 15 4 15 2 0 6 -7 10 -15z m-2167 -28 c9
11 8 6 -3 -14 -10 -17 -27 -36 -38 -42 -18 -8 -18 -10 -3 -10 29 -1 19 -31
-13 -37 -16 -4 -30 -9 -31 -13 0 -3 -2 -14 -4 -24 -2 -9 1 -15 6 -11 14 8 11
-6 -5 -22 -19 -19 -36 -18 -36 3 0 9 3 13 7 9 4 -4 12 10 18 31 9 30 15 37 32
35 12 -2 24 2 28 8 3 5 0 10 -8 10 -8 0 -18 7 -21 16 -3 8 -2 13 3 10 5 -3 20
3 32 14 l24 19 -22 -6 c-25 -6 -30 6 -11 25 9 9 14 9 21 -4 8 -14 10 -13 24 3z
m1938 -5 c-3 -3 -11 0 -18 7 -9 10 -8 11 6 5 10 -3 15 -9 12 -12z m98 5 c7 4
4 -4 -5 -19 -12 -19 -14 -28 -5 -37 15 -15 0 -14 -17 2 -12 10 -12 15 2 31 16
18 16 19 -2 12 -16 -6 -17 -4 -5 10 8 10 15 12 17 5 2 -6 9 -8 15 -4z m54 -10
c-1 -7 5 -11 15 -11 9 1 19 -7 21 -17 6 -21 3 -23 -21 -10 -9 5 -26 5 -37 0
-11 -4 -14 -8 -7 -8 6 -1 12 -6 12 -13 0 -8 -6 -6 -16 4 -10 10 -14 23 -10 34
6 15 9 16 16 4 11 -18 22 -8 14 14 -3 9 -11 13 -17 9 -6 -3 -7 -1 -3 5 8 14
36 4 33 -11z m-2376 -31 c-17 -18 -18 -25 -8 -36 10 -12 9 -12 -4 -2 -9 6 -20
8 -25 4 -4 -4 -2 2 6 12 14 18 13 19 -8 14 -12 -4 -20 -2 -16 3 3 5 11 9 17 9
7 0 21 10 32 22 13 16 20 18 23 9 2 -7 -5 -22 -17 -35z m-51 26 c0 -13 -12
-22 -22 -16 -10 6 -1 24 13 24 5 0 9 -4 9 -8z m-57 -23 c4 -16 3 -18 -9 -8
-16 13 -19 29 -5 29 5 0 11 -9 14 -21z m243 -8 c-12 -19 -24 -12 -19 10 4 13
9 17 15 11 6 -6 7 -15 4 -21z m2119 9 c18 -20 17 -20 -9 -20 -24 0 -26 -3 -21
-22 4 -17 3 -19 -4 -8 -10 16 -4 70 9 70 4 0 15 -9 25 -20z m218 -4 c17 -15
24 -31 21 -40 -3 -9 -8 -16 -11 -16 -3 0 -3 7 1 15 3 10 -1 15 -12 15 -15 0
-15 2 -2 10 8 5 12 10 7 10 -12 0 -49 -23 -71 -45 -14 -14 -16 -15 -7 -3 13
17 13 19 -7 25 -12 3 -22 9 -22 15 0 5 9 4 20 -2 26 -14 43 -4 37 21 -7 27 15
24 46 -5z m127 -13 c0 -8 4 -12 8 -9 5 3 9 -1 9 -8 0 -7 -12 -12 -28 -12 -15
0 -26 3 -23 8 3 5 10 5 16 2 5 -4 4 4 -2 17 l-13 23 -8 -22 c-11 -30 -19 -28
-13 4 3 18 1 23 -7 18 -7 -4 -9 -3 -5 4 9 15 66 -6 66 -25z m-2847 12 c-3 -9
-8 -14 -10 -11 -3 3 -2 9 2 15 9 16 15 13 8 -4z m170 -20 c-3 -8 -10 -15 -15
-15 -7 0 -6 5 1 13 6 8 7 18 3 22 -4 5 -2 5 5 1 7 -4 10 -13 6 -21z m175 5 c7
-12 17 -18 22 -15 6 3 10 2 10 -4 0 -5 -9 -9 -20 -8 -11 1 -20 8 -20 15 0 8
-6 12 -15 8 -15 -5 -20 5 -8 17 11 11 17 8 31 -13z m2427 10 c3 -5 2 -10 -4
-10 -5 0 -13 5 -16 10 -3 6 -2 10 4 10 5 0 13 -4 16 -10z m-1241 -25 c-4 -8
-11 -15 -16 -15 -6 0 -5 6 2 15 7 8 14 15 16 15 2 0 1 -7 -2 -15z m60 -10 c21
-32 20 -55 -1 -56 -15 0 -15 -2 2 -9 13 -6 15 -9 5 -9 -26 -1 -60 11 -55 19 3
5 0 12 -7 16 -7 4 -10 4 -6 -1 4 -4 0 -14 -10 -22 -16 -12 -16 -13 2 -6 13 4
17 3 12 -5 -4 -7 -2 -12 4 -12 6 0 8 -5 4 -12 -6 -9 -9 -9 -12 0 -2 7 -10 12
-18 12 -8 0 -14 5 -14 10 0 6 -6 10 -14 10 -21 0 -30 20 -17 33 9 9 11 8 6 -3
-4 -11 1 -16 16 -17 18 -2 19 0 8 15 -11 14 -11 15 1 5 9 -8 18 -9 25 -3 7 6
24 6 42 1 22 -6 30 -5 30 4 0 7 -8 10 -18 8 -9 -3 -20 1 -25 8 -5 9 -2 11 9 6
20 -7 22 4 5 21 -8 8 -8 12 -1 12 6 0 18 -11 27 -25z m-1514 -5 c0 -5 -5 -10
-11 -10 -5 0 -7 5 -4 10 3 6 8 10 11 10 2 0 4 -4 4 -10z m259 -16 c4 3 13 1
21 -5 10 -6 11 -9 3 -9 -7 0 -13 -11 -13 -24 0 -27 -15 -42 -25 -26 -4 6 -10
8 -15 5 -5 -3 -11 -1 -15 5 -3 6 1 13 9 16 9 3 16 18 17 33 0 14 3 20 6 13 2
-6 8 -10 12 -8z m2201 -27 c0 -3 -6 -7 -12 -10 -8 -3 -14 5 -14 19 -2 20 0 21
12 9 8 -7 14 -16 14 -18z m150 29 c0 -2 -7 -7 -16 -10 -8 -3 -12 -2 -9 4 6 10
25 14 25 6z m154 -5 c4 -5 -3 -7 -14 -4 -23 6 -26 13 -6 13 8 0 17 -4 20 -9z
m-2753 -18 c13 -16 12 -17 -3 -4 -10 7 -18 15 -18 17 0 8 8 3 21 -13z m92 -4
c-4 -15 -8 -17 -14 -8 -8 14 -3 29 11 29 4 0 6 -9 3 -21z m881 12 c3 -5 -1
-11 -9 -14 -9 -4 -12 -1 -8 9 6 16 10 17 17 5z m200 -4 c4 4 4 -1 0 -10 -8
-22 -26 -17 -30 7 -2 13 1 14 10 7 7 -6 16 -8 20 -4z m1350 -19 c-9 -14 -23 2
-17 18 4 12 8 13 14 3 4 -7 5 -17 3 -21z m116 22 c-20 -13 -33 -13 -25 0 3 6
14 10 23 10 15 0 15 -2 2 -10z m-2590 -14 c-7 -7 -13 -7 -20 0 -6 6 -3 10 10
10 13 0 16 -4 10 -10z m1512 -6 c16 -17 16 -21 2 -35 -17 -17 -44 -20 -44 -5
0 6 10 10 23 10 19 1 20 2 6 13 -9 7 -14 18 -12 25 6 15 5 16 25 -8z m359 -2
c-4 -12 -13 -23 -20 -24 -6 -1 -7 0 -1 3 5 2 10 13 10 24 0 10 4 19 10 19 5 0
6 -9 1 -22z m379 7 c7 -9 8 -15 2 -15 -5 0 -12 7 -16 15 -3 8 -4 15 -2 15 2 0
9 -7 16 -15z m47 -6 c-8 -13 -13 -15 -18 -7 -10 15 -4 25 15 25 11 0 12 -4 3
-18z m-2187 1 c0 -5 -2 -10 -4 -10 -3 0 -8 5 -11 10 -3 6 -1 10 4 10 6 0 11
-4 11 -10z m2090 -15 c7 -8 9 -15 5 -15 -4 0 -1 -8 6 -17 13 -16 12 -17 -3 -4
-10 7 -18 20 -18 29 0 12 -5 11 -23 -6 -13 -12 -27 -19 -30 -15 -12 12 -7 22
8 17 8 -4 17 1 21 10 8 20 18 20 34 1z m367 9 c-3 -3 -12 -4 -19 -1 -8 3 -5 6
6 6 11 1 17 -2 13 -5z m-2619 -22 c-10 -2 -18 -10 -18 -18 0 -8 -5 -12 -11 -9
-7 5 -4 13 7 26 9 10 22 15 28 11 7 -4 5 -8 -6 -10z m76 9 c6 -10 -24 -25 -32
-16 -3 3 0 5 7 5 7 0 9 5 6 10 -3 6 -2 10 4 10 5 0 12 -4 15 -9z m2203 -13
c-3 -8 -6 -5 -6 6 -1 11 2 17 5 13 3 -3 4 -12 1 -19z m162 5 c-7 -10 -14 -19
-15 -21 -1 -2 -4 4 -8 13 -3 9 -2 13 3 10 5 -3 12 -1 16 5 3 5 9 10 12 10 3 0
-1 -8 -8 -17z m58 2 c0 -8 -4 -12 -9 -9 -4 3 -8 9 -8 15 0 5 4 9 8 9 5 0 9 -7
9 -15z m-2336 -18 c-10 -9 -11 -8 -5 6 3 10 9 15 12 12 3 -3 0 -11 -7 -18z
m444 13 c-3 -5 -12 -10 -18 -10 -7 0 -6 4 3 10 19 12 23 12 15 0z m1789 -6 c3
-8 2 -12 -4 -9 -6 3 -10 10 -10 16 0 14 7 11 14 -7z m153 9 c-4 -3 -1 -13 6
-22 11 -14 10 -14 -5 -2 -21 15 -23 31 -6 31 6 0 8 -3 5 -7z m-2321 -19 c18
-14 18 -15 -6 -8 -31 8 -50 24 -29 24 8 0 24 -7 35 -16z m2141 10 c-3 -3 -12
-4 -19 -1 -8 3 -5 6 6 6 11 1 17 -2 13 -5z m-2277 -14 c0 -5 -5 -10 -11 -10
-5 0 -7 5 -4 10 3 6 8 10 11 10 2 0 4 -4 4 -10z"/>
<path d="M1476 2310 c-15 -5 -16 -9 -7 -14 7 -5 18 -3 24 3 14 14 6 20 -17 11z"/>
<path d="M1679 2273 c-13 -17 -13 -17 6 -3 11 8 22 16 24 17 2 2 0 3 -6 3 -6
0 -17 -8 -24 -17z"/>
<path d="M1587 2263 c-13 -12 -7 -18 18 -19 28 -2 34 11 9 20 -19 7 -19 7 -27
-1z"/>
<path d="M1750 2232 c9 -19 30 -23 30 -5 0 4 -3 3 -7 0 -3 -4 -12 1 -20 11
-13 15 -13 15 -3 -6z"/>
<path d="M1527 2221 c-18 -7 -18 -7 0 -21 10 -8 15 -10 11 -6 -4 5 -3 15 3 23
13 14 12 15 -14 4z"/>
<path d="M1648 2223 c7 -3 16 -2 19 1 4 3 -2 6 -13 5 -11 0 -14 -3 -6 -6z"/>
<path d="M1535 2130 c-3 -5 -1 -10 4 -10 6 0 11 5 11 10 0 6 -2 10 -4 10 -3 0
-8 -4 -11 -10z"/>
<path d="M1710 1941 c0 -25 6 -27 13 -6 4 8 2 17 -3 20 -6 4 -10 -3 -10 -14z"/>
<path d="M1120 1584 c1 -25 37 -43 37 -18 0 8 -3 12 -5 9 -3 -3 -11 0 -19 6
-7 6 -13 8 -13 3z"/>
<path d="M1034 1538 c-4 -7 -3 -8 4 -4 7 4 12 2 12 -3 0 -6 5 -11 10 -11 15 0
12 17 -5 23 -8 4 -17 1 -21 -5z"/>
<path d="M975 1531 c-3 -5 -2 -12 3 -15 5 -3 9 1 9 9 0 17 -3 19 -12 6z"/>
<path d="M1120 1530 c0 -5 5 -10 10 -10 6 0 10 5 10 10 0 6 -4 10 -10 10 -5 0
-10 -4 -10 -10z"/>
<path d="M1156 1531 c-4 -7 -5 -15 -2 -18 9 -9 19 4 14 18 -4 11 -6 11 -12 0z"/>
<path d="M920 1485 c0 -8 2 -15 4 -15 2 0 6 7 10 15 3 8 1 15 -4 15 -6 0 -10
-7 -10 -15z"/>
<path d="M954 1488 c-3 -4 0 -8 7 -8 9 0 9 -3 0 -14 -10 -12 -8 -13 11 -9 l23
6 -21 -24 c-12 -13 -19 -30 -17 -36 3 -7 -1 -13 -7 -13 -7 0 -10 -8 -7 -19 3
-11 0 -22 -7 -24 -6 -2 -3 -3 7 -1 14 2 17 -2 13 -14 -5 -15 -5 -15 7 0 8 10
16 16 19 13 2 -3 5 1 5 9 0 8 -8 11 -21 8 -20 -5 -20 -5 -3 21 11 17 13 27 6
27 -7 0 -2 9 10 19 18 16 20 23 12 39 -6 11 -8 21 -6 24 3 3 -2 5 -10 5 -9 0
-18 -4 -21 -9z"/>
<path d="M1040 1473 c0 -7 6 -13 14 -13 8 0 16 6 19 13 3 8 -3 13 -14 13 -11
0 -19 -6 -19 -13z"/>
<path d="M1045 1421 c-3 -6 -13 -11 -21 -11 -9 0 -22 -7 -30 -15 -13 -12 -13
-15 -2 -15 8 0 20 6 27 13 11 10 13 10 7 0 -5 -8 -1 -13 9 -13 9 0 13 5 9 11
-3 6 0 15 7 20 7 4 11 11 7 14 -3 4 -9 2 -13 -4z"/>
<path d="M692 1352 c0 -4 -4 -18 -10 -32 -9 -22 -11 -22 -12 -5 0 16 -2 17 -9
6 -7 -10 -4 -19 7 -29 15 -12 15 -13 -5 -9 -13 3 -23 1 -23 -4 0 -5 5 -9 11
-9 5 0 7 -6 3 -12 -4 -7 1 -5 12 4 33 29 46 26 50 -12 2 -32 1 -33 -11 -17 -9
13 -20 17 -34 12 -30 -9 -15 -38 15 -31 14 4 24 2 24 -4 0 -5 -7 -10 -15 -10
-8 0 -15 -8 -15 -17 0 -15 2 -16 10 -3 5 8 10 11 10 5 1 -5 8 2 16 18 8 15 12
31 9 36 -3 5 1 11 7 14 10 3 8 9 -5 24 -16 19 -17 21 -1 27 11 4 15 2 11 -7
-6 -17 19 -52 28 -37 3 5 12 7 18 4 7 -4 0 6 -16 20 -15 15 -25 32 -21 37 3 5
2 9 -3 8 -19 -3 -34 2 -29 10 3 5 -1 11 -9 15 -8 3 -14 2 -13 -2z m14 -38 c-3
-9 -6 -18 -6 -20 0 -2 -4 -4 -9 -4 -5 0 -7 9 -4 20 3 11 10 20 15 20 6 0 7 -7
4 -16z"/>
<path d="M631 1244 c0 -11 3 -14 6 -6 3 7 2 16 -1 19 -3 4 -6 -2 -5 -13z"/>
<path d="M831 1248 c-1 -12 7 -16 28 -16 26 1 28 3 14 16 -12 12 -16 13 -23 2
-6 -10 -9 -10 -13 1 -4 10 -6 9 -6 -3z"/>
<path d="M861 1164 c0 -11 3 -14 6 -6 3 7 2 16 -1 19 -3 4 -6 -2 -5 -13z"/>
<path d="M825 1157 c-11 -13 -21 -76 -10 -65 4 3 5 9 3 12 -1 3 6 12 17 20 13
10 15 15 6 16 -11 0 -11 3 -1 15 7 8 9 15 4 15 -5 -1 -13 -6 -19 -13z"/>
<path d="M696 1105 c4 -8 8 -15 10 -15 2 0 4 7 4 15 0 8 -4 15 -10 15 -5 0 -7
-7 -4 -15z"/>
<path d="M1737 1394 c-8 -8 1 -24 14 -24 5 0 9 7 9 15 0 15 -12 20 -23 9z"/>
<path d="M1880 1365 c0 -19 19 -40 27 -30 5 6 6 9 4 8 -2 -2 -10 5 -17 15 -7
9 -13 13 -14 7z"/>
<path d="M1746 1311 c-4 -5 -2 -12 3 -15 5 -4 12 -2 15 3 4 5 2 12 -3 15 -5 4
-12 2 -15 -3z"/>
<path d="M2042 1249 c-8 -12 -9 -18 -4 -15 6 3 12 1 14 -6 3 -7 7 -8 10 -3 3
6 3 18 -1 27 -6 16 -7 16 -19 -3z"/>
<path d="M1933 1190 c-10 -15 -9 -17 8 -13 20 5 25 18 11 27 -4 2 -13 -4 -19
-14z"/>
<path d="M2035 1180 c-3 -5 -1 -10 4 -10 6 0 11 5 11 10 0 6 -2 10 -4 10 -3 0
-8 -4 -11 -10z"/>
<path d="M2110 1070 c0 -5 5 -10 11 -10 5 0 7 5 4 10 -3 6 -8 10 -11 10 -2 0
-4 -4 -4 -10z"/>
<path d="M2080 1050 c-9 -17 -8 -20 9 -20 11 0 23 4 26 10 4 6 -1 7 -11 3 -13
-5 -16 -3 -11 10 9 24 0 21 -13 -3z"/>
<path d="M2000 1000 c12 -8 10 -10 -8 -10 -13 0 -21 -3 -19 -8 4 -6 38 -7 80
-3 4 1 7 6 7 12 0 8 -4 8 -14 0 -10 -9 -15 -8 -20 4 -3 8 -13 15 -23 15 -15 0
-16 -2 -3 -10z"/>
<path d="M1566 1172 c-4 -7 -4 -16 -1 -22 3 -5 1 -10 -6 -10 -10 0 -10 -3 -1
-12 18 -18 35 3 24 32 -6 15 -11 19 -16 12z"/>
<path d="M370 1116 c0 -2 7 -9 15 -16 13 -11 14 -10 9 4 -5 14 -24 23 -24 12z"/>
<path d="M426 1098 c3 -5 10 -6 15 -3 13 9 11 12 -6 12 -8 0 -12 -4 -9 -9z"/>
<path d="M356 1078 c3 -4 9 -8 15 -8 5 0 9 4 9 8 0 5 -7 9 -15 9 -8 0 -12 -4
-9 -9z"/>
<path d="M393 1065 c0 -8 9 -15 19 -15 17 0 18 2 4 15 -8 8 -16 15 -19 15 -2
0 -4 -7 -4 -15z"/>
<path d="M396 1019 c6 -11 31 -12 37 -1 3 4 -6 8 -19 8 -13 1 -21 -2 -18 -7z"/>
<path d="M1720 1040 c0 -5 5 -10 10 -10 6 0 10 5 10 10 0 6 -4 10 -10 10 -5 0
-10 -4 -10 -10z"/>
<path d="M595 1000 c-8 -12 -8 -12 33 -14 17 -1 32 1 32 6 0 5 -14 6 -31 3
-19 -4 -28 -2 -24 5 3 5 4 10 1 10 -3 0 -8 -4 -11 -10z"/>
<path d="M1756 816 c-8 -29 -1 -30 17 -3 12 19 12 24 2 24 -8 0 -16 -10 -19
-21z"/>
<path d="M2260 912 c0 -12 19 -26 26 -19 2 2 -2 10 -11 17 -9 8 -15 8 -15 2z"/>
<path d="M2380 859 c0 -11 37 -12 43 -1 3 4 -6 8 -19 8 -13 1 -24 -2 -24 -7z"/>
<path d="M2266 798 c3 -5 10 -6 15 -3 13 9 11 12 -6 12 -8 0 -12 -4 -9 -9z"/>
<path d="M1320 658 c0 -12 5 -18 13 -15 6 2 11 10 10 16 -3 13 23 15 31 2 3
-5 -1 -12 -10 -15 -9 -4 -14 -13 -10 -21 4 -13 2 -13 -14 -5 -10 5 -25 10 -32
9 -7 0 -3 -4 10 -9 12 -5 22 -16 22 -24 0 -8 5 -18 10 -21 6 -4 9 -1 8 7 -2 8
5 12 21 10 15 -2 21 0 16 7 -3 6 -11 8 -17 5 -7 -5 -8 -2 -3 6 4 7 2 16 -5 20
-9 6 -7 10 9 15 37 11 25 32 -19 32 -33 0 -40 -4 -40 -19z"/>
<path d="M600 444 c0 -8 5 -12 10 -9 6 4 8 11 5 16 -9 14 -15 11 -15 -7z"/>
<path d="M1623 510 c2 -8 12 -14 21 -14 9 1 16 -4 16 -11 0 -8 -8 -11 -19 -8
-28 7 -34 -23 -8 -39 37 -24 57 -29 57 -13 0 19 -17 28 -24 13 -3 -9 -8 -8
-16 5 -6 9 -16 14 -22 11 -7 -4 -8 -2 -4 5 6 9 11 9 22 0 11 -9 19 -8 36 7 20
19 21 19 14 -3 -4 -12 -2 -24 4 -28 6 -3 8 -11 5 -16 -6 -9 8 -13 35 -9 12 1
12 -1 3 -10 -6 -7 -9 -19 -6 -26 9 -24 18 -16 19 17 2 26 -1 30 -17 26 -12 -3
-19 -1 -17 6 5 24 -13 67 -27 67 -8 0 -15 4 -15 9 0 6 -10 8 -22 6 -12 -3 -26
1 -31 8 -6 9 -7 8 -4 -3z"/>
<path d="M1633 366 c4 -10 1 -13 -9 -9 -10 4 -12 0 -8 -11 6 -16 8 -16 25 0
19 17 17 34 -3 34 -5 0 -8 -7 -5 -14z"/>
<path d="M267 513 c-4 -3 -7 -11 -7 -17 0 -6 5 -5 12 2 6 6 9 14 7 17 -3 3 -9
2 -12 -2z"/>
<path d="M1340 410 c0 -5 7 -10 16 -10 8 0 12 5 9 10 -3 6 -10 10 -16 10 -5 0
-9 -4 -9 -10z"/>
<path d="M1266 163 c-6 -14 -5 -15 5 -6 7 7 10 15 7 18 -3 3 -9 -2 -12 -12z"/>
<path d="M286 381 c-4 -7 -5 -15 -2 -18 9 -9 19 4 14 18 -4 11 -6 11 -12 0z"/>
<path d="M416 352 c-3 -5 1 -9 9 -9 8 0 15 4 15 9 0 4 -4 8 -9 8 -6 0 -12 -4
-15 -8z"/>
<path d="M259 173 c-13 -16 -12 -17 4 -4 16 13 21 21 13 21 -2 0 -10 -8 -17
-17z"/>
<path d="M424 2472 c3 -5 0 -13 -6 -15 -9 -4 -10 -6 -1 -6 17 -1 25 16 12 25
-7 4 -9 3 -5 -4z"/>
<path d="M210 2440 c0 -5 5 -10 11 -10 5 0 7 5 4 10 -3 6 -8 10 -11 10 -2 0
-4 -4 -4 -10z"/>
<path d="M848 2393 c7 -3 16 -2 19 1 4 3 -2 6 -13 5 -11 0 -14 -3 -6 -6z"/>
<path d="M820 2382 c0 -12 19 -26 26 -19 2 2 -2 10 -11 17 -9 8 -15 8 -15 2z"/>
<path d="M1256 2377 c3 -8 11 -14 19 -14 20 0 19 4 -5 17 -15 8 -18 8 -14 -3z"/>
<path d="M932 2365 c4 -4 3 -14 -3 -22 -9 -10 -8 -17 1 -28 15 -18 37 -20 43
-2 3 9 9 8 23 -5 20 -18 48 -11 36 9 -6 10 -52 33 -72 37 -3 1 -12 5 -20 10
-8 5 -12 6 -8 1z m36 -42 c-10 -13 -13 -13 -19 4 -5 11 -8 13 -8 4 -1 -8 -4
-12 -7 -8 -12 11 6 25 26 20 17 -4 18 -8 8 -20z"/>
<path d="M789 2355 c-8 -31 4 -65 24 -65 8 0 8 3 -2 9 -20 13 -4 33 17 22 26
-14 55 -24 74 -26 28 -3 10 13 -22 20 -17 4 -30 11 -30 17 0 6 -3 8 -7 5 -3
-4 -12 1 -19 11 -8 10 -13 12 -14 5 0 -7 -5 -13 -11 -13 -5 0 -7 5 -4 10 3 6
4 10 1 10 -3 0 -7 -2 -7 -5z"/>
<path d="M1050 2328 c0 -9 5 -20 10 -23 13 -8 13 5 0 25 -8 13 -10 13 -10 -2z"/>
<path d="M1077 2333 c-4 -6 2 -18 13 -28 16 -14 18 -20 8 -27 -8 -5 -1 -6 16
-2 22 5 27 4 21 -6 -6 -9 -3 -10 15 0 l22 12 -21 15 c-12 8 -29 12 -37 9 -9
-4 -18 2 -23 16 -4 12 -11 17 -14 11z"/>
<path d="M1180 2336 c0 -2 7 -7 16 -10 8 -3 12 -2 9 4 -6 10 -25 14 -25 6z"/>
<path d="M741 2312 c-1 -7 14 -22 33 -33 19 -11 37 -26 40 -34 3 -8 13 -15 23
-15 17 1 16 2 -1 15 -15 11 -16 15 -5 16 8 0 -2 6 -21 14 -19 7 -34 18 -32 25
2 7 -3 10 -12 7 -8 -3 -17 -1 -20 6 -3 9 -5 8 -5 -1z"/>
<path d="M1225 2280 c3 -5 8 -10 11 -10 2 0 4 5 4 10 0 6 -5 10 -11 10 -5 0
-7 -4 -4 -10z"/>
<path d="M857 2265 c2 -8 11 -11 19 -8 16 6 11 16 -11 19 -8 1 -11 -4 -8 -11z"/>
<path d="M880 2244 c0 -2 9 -8 20 -14 11 -6 20 -7 20 -2 0 6 -9 12 -20 15 -11
3 -20 3 -20 1z"/>
<path d="M954 2241 c4 -6 14 -11 22 -11 8 0 14 -4 14 -9 0 -4 -11 -7 -25 -6
-14 2 -25 -1 -25 -6 0 -6 20 -8 44 -7 30 2 42 7 39 15 -3 7 -9 11 -13 8 -5 -3
-10 -1 -12 4 -1 4 -14 12 -27 16 -16 5 -21 4 -17 -4z"/>
<path d="M1950 2240 c-13 -8 -12 -10 3 -10 9 0 17 5 17 10 0 12 -1 12 -20 0z"/>
<path d="M1080 2217 c0 -19 18 -22 40 -6 13 9 13 10 -1 6 -9 -3 -22 0 -28 6
-8 8 -11 7 -11 -6z"/>
<path d="M890 2210 c0 -6 5 -10 11 -10 5 0 7 -4 4 -10 -3 -6 1 -7 10 -4 10 4
15 2 13 -7 -2 -7 5 -14 15 -15 15 -2 15 -1 1 3 -11 3 -13 8 -6 12 6 4 -1 13
-19 23 -16 9 -29 13 -29 8z"/>
<path d="M976 2157 c3 -10 9 -15 12 -12 3 3 0 11 -7 18 -10 9 -11 8 -5 -6z"/>
<path d="M1020 2096 c7 -7 14 -6 21 1 9 9 7 12 -9 10 -14 -1 -18 -5 -12 -11z"/>
<path d="M949 2079 c-14 -9 29 -14 74 -9 10 1 24 -3 30 -8 7 -5 23 -13 36 -17
18 -5 22 -4 16 6 -6 9 -3 11 9 6 10 -4 15 -3 11 4 -4 5 -16 7 -27 3 -11 -3
-23 -1 -27 4 -8 14 -104 23 -122 11z"/>
<path d="M870 2016 c0 -2 7 -7 16 -10 8 -3 12 -2 9 4 -6 10 -25 14 -25 6z"/>
<path d="M1017 2004 c5 -13 2 -15 -18 -9 -18 5 -21 4 -9 -4 8 -6 21 -11 28
-11 14 0 16 26 2 35 -6 4 -7 -1 -3 -11z"/>
<path d="M920 2003 c8 -3 22 -11 30 -17 13 -10 13 -9 1 7 -7 9 -21 17 -30 16
-13 0 -14 -1 -1 -6z"/>
<path d="M1040 1996 c0 -2 7 -7 16 -10 8 -3 12 -2 9 4 -6 10 -25 14 -25 6z"/>
<path d="M1086 1978 c3 -5 10 -6 15 -3 13 9 11 12 -6 12 -8 0 -12 -4 -9 -9z"/>
<path d="M607 1813 c-4 -3 -6 -25 -6 -47 l2 -41 7 45 c8 48 7 54 -3 43z"/>
<path d="M592 1693 c-1 -17 -5 -40 -8 -50 -5 -17 -5 -17 6 0 6 9 9 32 7 50
l-4 32 -1 -32z"/>
<path d="M1990 877 c0 -4 5 -16 12 -26 12 -19 12 -19 30 1 24 28 23 36 -1 14
-18 -17 -20 -17 -30 1 -6 10 -11 15 -11 10z"/>
<path d="M1995 811 c-3 -5 -1 -12 5 -16 5 -3 10 1 10 9 0 18 -6 21 -15 7z"/>
<path d="M2133 770 c4 -15 1 -20 -10 -18 -12 2 -16 -7 -17 -34 0 -21 4 -40 11
-42 6 -3 13 -15 15 -27 3 -21 3 -21 26 -3 22 18 22 21 9 52 -7 18 -15 30 -18
28 -3 -3 -3 10 -1 29 3 23 0 35 -8 35 -7 0 -10 -8 -7 -20z m-5 -45 c-3 -3 -9
2 -12 12 -6 14 -5 15 5 6 7 -7 10 -15 7 -18z"/>
<path d="M2030 760 c0 -6 7 -10 15 -10 8 0 15 2 15 4 0 2 -7 6 -15 10 -8 3
-15 1 -15 -4z"/>
<path d="M2060 726 c0 -8 5 -18 10 -21 6 -3 10 3 10 14 0 12 -4 21 -10 21 -5
0 -10 -6 -10 -14z"/>
<path d="M2170 730 c0 -5 5 -10 11 -10 5 0 7 5 4 10 -3 6 -8 10 -11 10 -2 0
-4 -4 -4 -10z"/>
<path d="M2013 714 c3 -4 -1 -13 -9 -21 -8 -8 -11 -19 -8 -25 8 -12 20 0 29
30 4 14 2 22 -6 22 -7 0 -10 -3 -6 -6z"/>
<path d="M2157 613 c3 -7 9 -13 13 -13 4 0 10 6 13 13 3 7 -3 13 -13 13 -10 0
-16 -6 -13 -13z"/>
<path d="M2095 550 c3 -5 8 -10 11 -10 2 0 4 5 4 10 0 6 -5 10 -11 10 -5 0 -7
-4 -4 -10z"/>
<path d="M1757 543 c-10 -9 -9 -23 2 -23 5 0 11 7 15 15 5 15 -5 20 -17 8z"/>
<path d="M2055 420 c-3 -5 -1 -10 4 -10 6 0 11 5 11 10 0 6 -2 10 -4 10 -3 0
-8 -4 -11 -10z"/>
<path d="M1925 391 c-3 -5 -1 -12 5 -16 5 -3 10 1 10 9 0 18 -6 21 -15 7z"/>
<path d="M1950 385 c0 -5 5 -17 10 -25 7 -11 12 -12 20 -4 9 9 9 14 1 18 -6 4
-11 4 -11 -1 0 -4 -5 -1 -10 7 -5 8 -10 11 -10 5z"/>
<path d="M2010 365 c0 -8 4 -15 10 -15 5 0 7 7 4 15 -4 8 -8 15 -10 15 -2 0
-4 -7 -4 -15z"/>
<path d="M1920 349 c0 -5 5 -7 10 -4 6 3 10 8 10 11 0 2 -4 4 -10 4 -5 0 -10
-5 -10 -11z"/>
<path d="M2126 336 c4 -9 1 -16 -6 -16 -7 0 -10 -7 -6 -15 3 -8 0 -15 -7 -15
-8 0 -8 -3 2 -9 7 -5 22 -6 32 -4 11 3 19 0 19 -6 0 -7 -5 -9 -12 -5 -7 4 -8
3 -4 -4 10 -17 26 -15 26 2 0 8 5 16 12 18 6 2 13 15 15 27 3 20 1 22 -12 11
-8 -7 -15 -9 -15 -4 0 5 -7 0 -15 -10 -12 -16 -18 -17 -27 -8 -9 9 -9 12 0 12
14 0 16 26 2 35 -6 3 -7 -1 -4 -9z"/>
<path d="M1987 320 c-9 -11 -12 -20 -7 -20 6 0 14 8 17 17 6 15 7 15 14 -3 7
-17 8 -17 8 4 1 27 -9 28 -32 2z"/>
<path d="M1880 284 c0 -15 26 -19 34 -5 3 5 -3 11 -14 14 -13 3 -20 0 -20 -9z"/>
<path d="M2014 273 c2 -13 1 -23 -3 -23 -7 0 -7 -35 -1 -50 1 -3 2 -8 2 -11
-1 -3 5 -6 12 -6 14 0 14 10 2 39 -4 9 -6 21 -3 25 2 4 0 17 -4 28 -9 18 -9
18 -5 -2z"/>
<path d="M1951 263 c7 -12 15 -20 18 -17 3 2 -3 12 -13 22 -17 16 -18 16 -5
-5z"/>
<path d="M1975 270 c3 -5 8 -10 11 -10 2 0 4 5 4 10 0 6 -5 10 -11 10 -5 0 -7
-4 -4 -10z"/>
<path d="M1843 250 c-18 -14 -20 -19 -8 -24 9 -3 15 0 15 8 0 8 6 16 13 19 6
2 10 7 7 10 -3 3 -15 -3 -27 -13z"/>
<path d="M1910 260 c-12 -8 -10 -10 8 -10 13 0 20 4 17 10 -7 12 -6 12 -25 0z"/>
<path d="M1877 247 c-7 -18 7 -32 23 -22 9 6 14 -8 11 -28 -1 -4 7 -4 16 1 10
5 23 7 29 5 6 -2 14 2 16 9 4 8 -4 13 -21 14 -41 2 -56 8 -62 23 -4 12 -7 12
-12 -2z"/>
<path d="M2100 221 c0 -6 4 -12 8 -15 5 -3 9 1 9 9 0 8 -4 15 -9 15 -4 0 -8
-4 -8 -9z"/>
<path d="M2301 206 c-7 -8 -11 -21 -8 -28 4 -8 6 -7 6 5 1 9 5 17 11 17 5 0 7
-8 4 -17 -4 -12 -3 -14 3 -6 5 7 19 11 31 8 25 -4 34 5 23 24 -7 10 -13 10
-29 2 -15 -8 -21 -8 -24 0 -2 7 -9 5 -17 -5z"/>
<path d="M1731 154 c0 -11 3 -14 6 -6 3 7 2 16 -1 19 -3 4 -6 -2 -5 -13z"/>
<path d="M1958 164 c-4 -3 -2 -19 3 -36 4 -17 5 -36 2 -42 -4 -6 0 -6 9 1 8 7
17 10 21 7 3 -3 3 3 1 13 -4 13 2 23 18 30 l23 12 -22 0 c-13 1 -23 -4 -23
-10 0 -5 -4 -8 -10 -4 -5 3 -7 12 -3 20 5 15 -8 21 -19 9z"/>
<path d="M1750 150 c0 -5 5 -10 11 -10 5 0 7 5 4 10 -3 6 -8 10 -11 10 -2 0
-4 -4 -4 -10z"/>
<path d="M1912 140 c-17 -28 -15 -38 4 -14 15 18 15 18 9 -3 -5 -16 -2 -23 8
-23 17 0 17 15 1 42 -9 16 -10 16 -22 -2z"/>
<path d="M1778 134 c-4 -3 -14 -7 -25 -8 -11 -2 -18 -12 -19 -25 -1 -20 0 -20
16 -6 9 8 21 15 26 15 5 0 2 -4 -6 -10 -8 -5 -12 -12 -8 -15 3 -3 13 1 21 9 8
9 17 12 19 7 5 -13 58 -23 58 -11 0 6 -4 8 -10 5 -5 -3 -10 -1 -10 5 0 6 -4 8
-10 5 -12 -7 -53 19 -43 28 3 4 4 7 1 7 -2 0 -7 -3 -10 -6z"/>
<path d="M1859 123 c-8 -9 -9 -14 -2 -10 6 4 13 4 16 0 2 -5 2 -3 1 4 -2 6 2
14 9 17 8 3 8 5 1 5 -6 1 -18 -7 -25 -16z"/>
<path d="M2176 109 c-8 -12 -12 -27 -10 -34 5 -12 50 -12 62 0 4 4 0 6 -8 5
-30 -5 -51 0 -45 10 4 6 10 8 15 5 4 -3 10 2 14 10 9 24 -11 27 -28 4z"/>
<path d="M1927 83 c-4 -3 -7 -11 -7 -17 0 -6 5 -5 12 2 6 6 9 14 7 17 -3 3 -9
2 -12 -2z"/>
<path d="M1895 61 c-3 -5 -2 -12 3 -15 5 -3 9 1 9 9 0 17 -3 19 -12 6z"/>
<path d="M545 30 c3 -5 8 -10 11 -10 2 0 4 5 4 10 0 6 -5 10 -11 10 -5 0 -7
-4 -4 -10z"/>
<path d="M1843 15 c0 -7 6 -11 14 -8 7 3 13 6 13 8 0 2 -6 5 -13 8 -8 3 -14
-1 -14 -8z"/>
<path d="M1927 17 c4 -6 0 -8 -10 -4 -10 3 -17 2 -17 -3 0 -6 16 -10 35 -10
40 0 47 15 10 22 -15 3 -22 1 -18 -5z"/>
<path d="M1760 10 c0 -5 5 -10 11 -10 5 0 7 5 4 10 -3 6 -8 10 -11 10 -2 0 -4
-4 -4 -10z"/>
</g>
</svg>
